<?xml version="1.0" encoding="UTF-8"?>
<svg width="70px" height="50px" viewBox="0 0 70 50" version="1.1" xmlns="http://www.w3.org/2000/svg" xmlns:xlink="http://www.w3.org/1999/xlink">
    <title>amex</title>
    <g id="Page-1" stroke="none" stroke-width="1" fill="none" fill-rule="evenodd">
        <g id="CREDIT-CARDS" transform="translate(-160.000000, 0.000000)">
            <g id="amex" transform="translate(160.000000, 0.000000)">
                <rect id="amex-bg" fill="#007ECD" x="0" y="0" width="70" height="50" rx="6.63157895"></rect>
                <g id="amex-logo" transform="translate(31.000000, 8.000000)">
                    <polyline id="Path" fill="#FFFFFF" points="7.11197917 34.0887586 7.11197917 16.1720919 39 16.2013889 39 21.1503906 35.3140192 25.0881078 39 29.0638022 39 34.1169706 33.1156683 34.1169706 29.9884983 30.6664497 26.8830294 34.1310764 7.11197917 34.0887586"></polyline>
                    <polyline id="Path" fill="#007ECD" points="9.24197056 32.1236981 9.24197056 18.1436633 21.0963542 18.1436633 21.0963542 21.3641494 13.0809461 21.3641494 13.0809461 23.5505642 20.9053819 23.5505642 20.9053819 26.7178819 13.0809461 26.7178819 13.0809461 28.8652344 21.0963542 28.8652344 21.0963542 32.1236981 9.24197056 32.1236981"></polyline>
                    <polyline id="Path" fill="#007ECD" points="21.0377606 32.1236981 27.5959203 25.126085 21.0377606 18.1447483 26.1137153 18.1447483 30.1219619 22.5750869 34.1410592 18.1447483 39 18.1447483 39 18.2543403 32.5807292 25.126085 39 31.9262153 39 32.1236981 34.0922308 32.1236981 30.013455 27.6488717 25.9759114 32.1236981 21.0377606 32.1236981"></polyline>
                    <polyline id="Path" fill="#FFFFFF" points="8.59960944 0.270399444 16.2862414 0.270399444 18.9858942 6.40104167 18.9858942 0.270399444 28.4759114 0.270399444 30.1121961 4.86349833 31.7539064 0.270399444 39 0.270399444 39 18.1859808 0.705729167 18.1859808 8.59960944 0.270399444"></polyline>
                    <path d="M10.0557725,2.21701389 L3.85243056,16.1851128 L8.10698778,16.1851128 L9.27669278,13.3878039 L15.6178386,13.3878039 L16.7875433,16.1851128 L21.1473525,16.1851128 L14.9700522,2.21701389 L10.0557725,2.21701389 Z M10.5885417,10.2530383 L12.4483508,5.80642361 L14.3070747,10.2530383 L10.5885417,10.2530383 Z" id="Shape" fill="#007ECD"></path>
                    <polyline id="Path" fill="#007ECD" points="21.0898439 16.1829428 21.0898439 2.21484389 27.0696614 2.23546 30.1469183 10.8226997 33.2447917 2.21484389 39 2.21484389 39 16.1829428 35.2966581 16.2154947 35.2966581 6.62022583 31.8005642 16.1829428 28.4194878 16.1829428 24.8506944 6.58767361 24.8506944 16.1829428 21.0898439 16.1829428"></polyline>
                </g>
            </g>
        </g>
    </g>
</svg>