<?xml version="1.0" encoding="UTF-8"?>
<svg width="70px" height="50px" viewBox="0 0 70 50" version="1.1" xmlns="http://www.w3.org/2000/svg" xmlns:xlink="http://www.w3.org/1999/xlink">
    <title>discover</title>
    <g id="Page-1" stroke="none" stroke-width="1" fill="none" fill-rule="evenodd">
        <g id="CREDIT-CARDS" transform="translate(-240.000000, 0.000000)">
            <g id="discover" transform="translate(240.000000, 0.000000)">
                <rect id="discover-bg" fill="#FFA200" x="0" y="0" width="70" height="50" rx="6.71641791"></rect>
                <path d="M60.5451197,24.6273051 L60.0018416,24.6273051 L60.0018416,21.7260499 L60.5451197,21.7260499 C61.7403315,21.7260499 62.2836096,22.2633194 62.2836096,23.1229506 C62.2836096,24.0900356 61.7403315,24.6273051 60.5451197,24.6273051 L60.5451197,24.6273051 Z M64.2394107,23.0154967 C64.2394107,21.1887804 63.0441989,20.2216953 60.8710866,20.2216953 L58.1546961,20.2216953 L58.1546961,29.7850922 L60.0018416,29.7850922 L60.0018416,25.9167519 L60.2191529,25.9167519 L62.718232,29.7850922 L65,29.7850922 L62.0662983,25.809298 C63.3701657,25.5943902 64.3480663,24.4123973 64.2394107,23.0154967 L64.2394107,23.0154967 Z M51.7440147,29.7850922 L56.9594843,29.7850922 L56.9594843,28.1732837 L53.5911602,28.1732837 L53.5911602,25.5943902 L56.8508287,25.5943902 L56.8508287,23.9825817 L53.5911602,23.9825817 L53.5911602,21.8335038 L56.9594843,21.8335038 L56.9594843,20.2216953 L51.7440147,20.2216953 L51.7440147,29.7850922 L51.7440147,29.7850922 Z M46.3112339,26.6689292 L43.8121547,20.2216953 L41.8563536,20.2216953 L45.8766114,30 L46.854512,30 L50.8747698,20.2216953 L48.9189687,20.2216953 L46.3112339,26.6689292 L46.3112339,26.6689292 Z M24.2541436,25.0571207 C24.2541436,27.7434681 26.427256,30 29.1436464,30 C30.0128913,30 30.7734807,29.7850922 31.53407,29.4627305 L31.53407,27.3136526 C30.9907919,27.9583759 30.2302026,28.3881915 29.3609576,28.3881915 C27.6224678,28.3881915 26.2099448,27.0987448 26.2099448,25.3794824 L26.2099448,25.1645746 C26.1012891,23.4453122 27.5138122,21.9409577 29.252302,21.8335038 C30.121547,21.8335038 30.9907919,22.2633194 31.53407,22.9080428 L31.53407,20.7589648 C30.8821363,20.3291492 30.0128913,20.2216953 29.252302,20.2216953 C26.427256,20.0067875 24.2541436,22.2633194 24.2541436,25.0571207 L24.2541436,25.0571207 Z M20.8858195,23.8751278 C19.7992634,23.4453122 19.4732965,23.2304044 19.4732965,22.693135 C19.5819521,22.0484116 20.1252302,21.5111421 20.7771639,21.618596 C21.320442,21.618596 21.8637201,21.9409577 22.2983425,22.3707733 L23.2762431,21.0813265 C22.5156538,20.4366031 21.5377532,20.0067875 20.5598527,20.0067875 C19.038674,19.8993336 17.7348066,21.0813265 17.626151,22.5856811 L17.626151,22.693135 C17.626151,23.9825817 18.1694291,24.734759 19.907919,25.2720285 C20.3425414,25.3794824 20.7771639,25.5943902 21.2117864,25.809298 C21.5377532,26.0242058 21.7550645,26.3465675 21.7550645,26.7763831 C21.7550645,27.5285604 21.1031308,28.1732837 20.4511971,28.1732837 L20.3425414,28.1732837 C19.4732965,28.1732837 18.7127072,27.6360143 18.3867403,26.883837 L17.1915285,28.0658298 C17.8434622,29.2478227 19.1473297,29.8925461 20.4511971,29.8925461 C22.1896869,30 23.6022099,28.7105532 23.7108656,26.9912909 L23.7108656,26.6689292 C23.6022099,25.3794824 23.0589319,24.734759 20.8858195,23.8751278 L20.8858195,23.8751278 Z M14.5837937,29.7850922 L16.4309392,29.7850922 L16.4309392,20.2216953 L14.5837937,20.2216953 L14.5837937,29.7850922 L14.5837937,29.7850922 Z M10.8895028,27.4211065 C10.2375691,27.9583759 9.25966851,28.2807376 8.39042357,28.1732837 L7.84714549,28.1732837 L7.84714549,21.8335038 L8.39042357,21.8335038 C9.25966851,21.7260499 10.2375691,22.0484116 10.8895028,22.5856811 C11.5414365,23.2304044 11.8674033,24.0900356 11.8674033,24.9496668 C11.8674033,25.9167519 11.5414365,26.7763831 10.8895028,27.4211065 L10.8895028,27.4211065 Z M8.71639042,20.2216953 L6,20.2216953 L6,29.7850922 L8.71639042,29.7850922 C9.91160221,29.8925461 11.106814,29.4627305 12.0847145,28.7105532 C13.1712707,27.7434681 13.8232044,26.4540214 13.8232044,25.0571207 C13.93186,22.4782272 11.8674033,20.3291492 9.25966851,20.2216953 L8.71639042,20.2216953 L8.71639042,20.2216953 Z M37.0755064,20 C34.359116,20 32.0773481,22.149078 32.0773481,24.9428793 C32.0773481,27.6292267 34.2504604,29.8857586 37.0755064,29.9932125 C39.9005525,30.1006664 42.0736648,27.8441345 42.1823204,25.0503332 C42.0736648,22.2565319 39.9005525,20 37.0755064,20 L37.0755064,20 Z" id="discover-logo" fill="#FFFFFF"></path>
            </g>
        </g>
    </g>
</svg>