<svg width="1140" height="169" viewBox="0 0 1140 169" fill="none" xmlns="http://www.w3.org/2000/svg">
<line y1="16.5" x2="1140" y2="16.5" stroke="#E6EBF1"/>
<line y1="61.5" x2="1140" y2="61.5" stroke="#E6EBF1"/>
<line y1="106.5" x2="1140" y2="106.5" stroke="#E6EBF1"/>
<line y1="151.5" x2="1140" y2="151.5" stroke="#E6EBF1"/>
<path d="M6.47363 144.199C5.97884 144.854 5.29525 145.181 4.42285 145.181C3.55046 145.181 2.86523 144.854 2.36719 144.199C1.8724 143.542 1.625 142.63 1.625 141.465C1.625 140.303 1.8724 139.398 2.36719 138.75C2.86523 138.099 3.55046 137.773 4.42285 137.773C5.29199 137.773 5.97559 138.099 6.47363 138.75C6.97168 139.401 7.2207 140.308 7.2207 141.47C7.2207 142.632 6.97168 143.542 6.47363 144.199ZM3.46094 143.33C3.69206 143.763 4.0127 143.979 4.42285 143.979C4.83301 143.979 5.15202 143.765 5.37988 143.335C5.611 142.902 5.72656 142.279 5.72656 141.465C5.72656 140.658 5.611 140.042 5.37988 139.619C5.15202 139.193 4.83301 138.979 4.42285 138.979C4.01595 138.979 3.69694 139.193 3.46582 139.619C3.2347 140.046 3.11914 140.661 3.11914 141.465C3.11914 142.275 3.23307 142.897 3.46094 143.33Z" fill="#B3BEC8"/>
<path d="M3.41699 100V94.3896H3.3291L1.60059 95.5811V94.209L3.42188 92.9541H4.8916V100H3.41699ZM11.6104 99.1992C11.1156 99.8535 10.432 100.181 9.55957 100.181C8.68717 100.181 8.00195 99.8535 7.50391 99.1992C7.00911 98.5417 6.76172 97.6302 6.76172 96.4648C6.76172 95.3027 7.00911 94.3978 7.50391 93.75C8.00195 93.099 8.68717 92.7734 9.55957 92.7734C10.4287 92.7734 11.1123 93.099 11.6104 93.75C12.1084 94.401 12.3574 95.3076 12.3574 96.4697C12.3574 97.6318 12.1084 98.5417 11.6104 99.1992ZM8.59766 98.3301C8.82878 98.763 9.14941 98.9795 9.55957 98.9795C9.96973 98.9795 10.2887 98.7646 10.5166 98.335C10.7477 97.902 10.8633 97.2786 10.8633 96.4648C10.8633 95.6576 10.7477 95.0423 10.5166 94.6191C10.2887 94.1927 9.96973 93.9795 9.55957 93.9795C9.15267 93.9795 8.83366 94.1927 8.60254 94.6191C8.37142 95.0456 8.25586 95.6608 8.25586 96.4648C8.25586 97.2754 8.36979 97.8971 8.59766 98.3301ZM18.4561 99.1992C17.9613 99.8535 17.2777 100.181 16.4053 100.181C15.5329 100.181 14.8477 99.8535 14.3496 99.1992C13.8548 98.5417 13.6074 97.6302 13.6074 96.4648C13.6074 95.3027 13.8548 94.3978 14.3496 93.75C14.8477 93.099 15.5329 92.7734 16.4053 92.7734C17.2744 92.7734 17.958 93.099 18.4561 93.75C18.9541 94.401 19.2031 95.3076 19.2031 96.4697C19.2031 97.6318 18.9541 98.5417 18.4561 99.1992ZM15.4434 98.3301C15.6745 98.763 15.9951 98.9795 16.4053 98.9795C16.8154 98.9795 17.1344 98.7646 17.3623 98.335C17.5934 97.902 17.709 97.2786 17.709 96.4648C17.709 95.6576 17.5934 95.0423 17.3623 94.6191C17.1344 94.1927 16.8154 93.9795 16.4053 93.9795C15.9984 93.9795 15.6794 94.1927 15.4482 94.6191C15.2171 95.0456 15.1016 95.6608 15.1016 96.4648C15.1016 97.2754 15.2155 97.8971 15.4434 98.3301Z" fill="#B3BEC8"/>
<path d="M1.62988 50.0635C1.62988 49.3831 1.86751 48.8314 2.34277 48.4082C2.81803 47.985 3.43652 47.7734 4.19824 47.7734C4.93392 47.7734 5.53288 47.9655 5.99512 48.3496C6.46061 48.7305 6.69336 49.2236 6.69336 49.8291C6.69336 50.2132 6.57292 50.5957 6.33203 50.9766C6.09115 51.3542 5.66634 51.8294 5.05762 52.4023L3.70996 53.6865V53.7744H6.7959V55H1.71289V53.9697L4.0127 51.7188C4.50749 51.237 4.83789 50.8757 5.00391 50.6348C5.16992 50.3939 5.25293 50.1579 5.25293 49.9268C5.25293 49.6436 5.14876 49.4124 4.94043 49.2334C4.73535 49.0511 4.47168 48.96 4.14941 48.96C3.80762 48.96 3.5293 49.0625 3.31445 49.2676C3.10286 49.4694 2.99707 49.7331 2.99707 50.0586V50.0879H1.62988V50.0635ZM12.9092 54.1992C12.4144 54.8535 11.7308 55.1807 10.8584 55.1807C9.986 55.1807 9.30078 54.8535 8.80273 54.1992C8.30794 53.5417 8.06055 52.6302 8.06055 51.4648C8.06055 50.3027 8.30794 49.3978 8.80273 48.75C9.30078 48.099 9.986 47.7734 10.8584 47.7734C11.7275 47.7734 12.4111 48.099 12.9092 48.75C13.4072 49.401 13.6562 50.3076 13.6562 51.4697C13.6562 52.6318 13.4072 53.5417 12.9092 54.1992ZM9.89648 53.3301C10.1276 53.763 10.4482 53.9795 10.8584 53.9795C11.2686 53.9795 11.5876 53.7646 11.8154 53.335C12.0465 52.902 12.1621 52.2786 12.1621 51.4648C12.1621 50.6576 12.0465 50.0423 11.8154 49.6191C11.5876 49.1927 11.2686 48.9795 10.8584 48.9795C10.4515 48.9795 10.1325 49.1927 9.90137 49.6191C9.67025 50.0456 9.55469 50.6608 9.55469 51.4648C9.55469 52.2754 9.66862 52.8971 9.89648 53.3301ZM19.7549 54.1992C19.2601 54.8535 18.5765 55.1807 17.7041 55.1807C16.8317 55.1807 16.1465 54.8535 15.6484 54.1992C15.1536 53.5417 14.9062 52.6302 14.9062 51.4648C14.9062 50.3027 15.1536 49.3978 15.6484 48.75C16.1465 48.099 16.8317 47.7734 17.7041 47.7734C18.5732 47.7734 19.2568 48.099 19.7549 48.75C20.2529 49.401 20.502 50.3076 20.502 51.4697C20.502 52.6318 20.2529 53.5417 19.7549 54.1992ZM16.7422 53.3301C16.9733 53.763 17.2939 53.9795 17.7041 53.9795C18.1143 53.9795 18.4333 53.7646 18.6611 53.335C18.8923 52.902 19.0078 52.2786 19.0078 51.4648C19.0078 50.6576 18.8923 50.0423 18.6611 49.6191C18.4333 49.1927 18.1143 48.9795 17.7041 48.9795C17.2972 48.9795 16.9782 49.1927 16.7471 49.6191C16.516 50.0456 16.4004 50.6608 16.4004 51.4648C16.4004 52.2754 16.5143 52.8971 16.7422 53.3301Z" fill="#B3BEC8"/>
<path d="M3.43164 6.94336V5.84473H4.29102C4.6263 5.84473 4.89648 5.75521 5.10156 5.57617C5.3099 5.39714 5.41406 5.16439 5.41406 4.87793C5.41406 4.59473 5.31152 4.37012 5.10645 4.2041C4.90462 4.03483 4.63118 3.9502 4.28613 3.9502C3.94434 3.9502 3.66764 4.03971 3.45605 4.21875C3.24447 4.39779 3.12891 4.6403 3.10938 4.94629H1.74707C1.77311 4.27897 2.01725 3.75 2.47949 3.35938C2.94173 2.96875 3.55697 2.77344 4.3252 2.77344C5.04785 2.77344 5.64193 2.95247 6.10742 3.31055C6.57617 3.66536 6.81055 4.11947 6.81055 4.67285C6.81055 5.07975 6.69173 5.42969 6.4541 5.72266C6.21973 6.01562 5.9056 6.2028 5.51172 6.28418V6.37207C5.99674 6.42741 6.37923 6.60645 6.65918 6.90918C6.94238 7.20866 7.08398 7.58952 7.08398 8.05176C7.08398 8.45866 6.96517 8.82487 6.72754 9.15039C6.49316 9.47266 6.16439 9.72493 5.74121 9.90723C5.31803 10.0895 4.84277 10.1807 4.31543 10.1807C3.53092 10.1807 2.8929 9.98047 2.40137 9.58008C1.90983 9.17969 1.64779 8.64746 1.61523 7.9834H3.02637C3.04915 8.28288 3.17773 8.52051 3.41211 8.69629C3.64648 8.86882 3.95247 8.95508 4.33008 8.95508C4.69792 8.95508 4.9974 8.86068 5.22852 8.67188C5.46289 8.48307 5.58008 8.23893 5.58008 7.93945C5.58008 7.63021 5.46615 7.3877 5.23828 7.21191C5.01042 7.03288 4.69954 6.94336 4.30566 6.94336H3.43164ZM13.1143 9.19922C12.6195 9.85352 11.9359 10.1807 11.0635 10.1807C10.1911 10.1807 9.50586 9.85352 9.00781 9.19922C8.51302 8.54167 8.26562 7.63021 8.26562 6.46484C8.26562 5.30273 8.51302 4.39779 9.00781 3.75C9.50586 3.09896 10.1911 2.77344 11.0635 2.77344C11.9326 2.77344 12.6162 3.09896 13.1143 3.75C13.6123 4.40104 13.8613 5.30762 13.8613 6.46973C13.8613 7.63184 13.6123 8.54167 13.1143 9.19922ZM10.1016 8.33008C10.3327 8.76302 10.6533 8.97949 11.0635 8.97949C11.4736 8.97949 11.7926 8.76465 12.0205 8.33496C12.2516 7.90202 12.3672 7.27865 12.3672 6.46484C12.3672 5.65755 12.2516 5.04232 12.0205 4.61914C11.7926 4.19271 11.4736 3.97949 11.0635 3.97949C10.6566 3.97949 10.3376 4.19271 10.1064 4.61914C9.87533 5.04557 9.75977 5.66081 9.75977 6.46484C9.75977 7.27539 9.8737 7.89714 10.1016 8.33008ZM19.96 9.19922C19.4652 9.85352 18.7816 10.1807 17.9092 10.1807C17.0368 10.1807 16.3516 9.85352 15.8535 9.19922C15.3587 8.54167 15.1113 7.63021 15.1113 6.46484C15.1113 5.30273 15.3587 4.39779 15.8535 3.75C16.3516 3.09896 17.0368 2.77344 17.9092 2.77344C18.7783 2.77344 19.4619 3.09896 19.96 3.75C20.458 4.40104 20.707 5.30762 20.707 6.46973C20.707 7.63184 20.458 8.54167 19.96 9.19922ZM16.9473 8.33008C17.1784 8.76302 17.499 8.97949 17.9092 8.97949C18.3193 8.97949 18.6383 8.76465 18.8662 8.33496C19.0973 7.90202 19.2129 7.27865 19.2129 6.46484C19.2129 5.65755 19.0973 5.04232 18.8662 4.61914C18.6383 4.19271 18.3193 3.97949 17.9092 3.97949C17.5023 3.97949 17.1833 4.19271 16.9521 4.61914C16.721 5.04557 16.6055 5.66081 16.6055 6.46484C16.6055 7.27539 16.7194 7.89714 16.9473 8.33008Z" fill="#B3BEC8"/>
<path d="M43.417 167V161.39H43.3291L41.6006 162.581V161.209L43.4219 159.954H44.8916V167H43.417Z" fill="#B3BEC8"/>
<path d="M92.6299 162.063C92.6299 161.383 92.8675 160.831 93.3428 160.408C93.818 159.985 94.4365 159.773 95.1982 159.773C95.9339 159.773 96.5329 159.965 96.9951 160.35C97.4606 160.73 97.6934 161.224 97.6934 161.829C97.6934 162.213 97.5729 162.596 97.332 162.977C97.0911 163.354 96.6663 163.829 96.0576 164.402L94.71 165.687V165.774H97.7959V167H92.7129V165.97L95.0127 163.719C95.5075 163.237 95.8379 162.876 96.0039 162.635C96.1699 162.394 96.2529 162.158 96.2529 161.927C96.2529 161.644 96.1488 161.412 95.9404 161.233C95.7354 161.051 95.4717 160.96 95.1494 160.96C94.8076 160.96 94.5293 161.062 94.3145 161.268C94.1029 161.469 93.9971 161.733 93.9971 162.059V162.088H92.6299V162.063Z" fill="#B3BEC8"/>
<path d="M146.432 163.943V162.845H147.291C147.626 162.845 147.896 162.755 148.102 162.576C148.31 162.397 148.414 162.164 148.414 161.878C148.414 161.595 148.312 161.37 148.106 161.204C147.905 161.035 147.631 160.95 147.286 160.95C146.944 160.95 146.668 161.04 146.456 161.219C146.244 161.398 146.129 161.64 146.109 161.946H144.747C144.773 161.279 145.017 160.75 145.479 160.359C145.942 159.969 146.557 159.773 147.325 159.773C148.048 159.773 148.642 159.952 149.107 160.311C149.576 160.665 149.811 161.119 149.811 161.673C149.811 162.08 149.692 162.43 149.454 162.723C149.22 163.016 148.906 163.203 148.512 163.284V163.372C148.997 163.427 149.379 163.606 149.659 163.909C149.942 164.209 150.084 164.59 150.084 165.052C150.084 165.459 149.965 165.825 149.728 166.15C149.493 166.473 149.164 166.725 148.741 166.907C148.318 167.09 147.843 167.181 147.315 167.181C146.531 167.181 145.893 166.98 145.401 166.58C144.91 166.18 144.648 165.647 144.615 164.983H146.026C146.049 165.283 146.178 165.521 146.412 165.696C146.646 165.869 146.952 165.955 147.33 165.955C147.698 165.955 147.997 165.861 148.229 165.672C148.463 165.483 148.58 165.239 148.58 164.939C148.58 164.63 148.466 164.388 148.238 164.212C148.01 164.033 147.7 163.943 147.306 163.943H146.432Z" fill="#B3BEC8"/>
<path d="M200.004 167V165.77H196.557V164.466C197.107 163.427 198.036 161.924 199.345 159.954H201.41V164.544H202.333V165.77H201.41V167H200.004ZM197.88 164.51V164.588H200.038V161.102H199.96C199.208 162.225 198.515 163.361 197.88 164.51Z" fill="#B3BEC8"/>
<path d="M251.374 167.181C250.616 167.181 249.994 166.977 249.509 166.57C249.027 166.16 248.775 165.636 248.752 164.998H250.114C250.157 165.291 250.295 165.527 250.529 165.706C250.764 165.885 251.049 165.975 251.384 165.975C251.765 165.975 252.072 165.857 252.307 165.623C252.544 165.389 252.663 165.081 252.663 164.7C252.663 164.313 252.544 164 252.307 163.763C252.069 163.525 251.763 163.406 251.389 163.406C250.845 163.406 250.443 163.618 250.183 164.041H248.864L249.216 159.954H253.645V161.18H250.358L250.202 162.991H250.29C250.609 162.532 251.107 162.303 251.784 162.303C252.451 162.303 252.998 162.524 253.425 162.967C253.854 163.41 254.069 163.976 254.069 164.666C254.069 165.415 253.822 166.022 253.327 166.487C252.832 166.95 252.181 167.181 251.374 167.181Z" fill="#B3BEC8"/>
<path d="M303.525 167.181C303.014 167.181 302.559 167.072 302.158 166.854C301.761 166.635 301.442 166.32 301.201 165.906C300.807 165.301 300.61 164.508 300.61 163.528C300.61 162.36 300.871 161.442 301.392 160.774C301.912 160.107 302.632 159.773 303.55 159.773C304.22 159.773 304.792 159.954 305.264 160.315C305.739 160.677 306.027 161.152 306.128 161.741H304.668C304.6 161.51 304.463 161.326 304.258 161.189C304.056 161.053 303.817 160.984 303.54 160.984C303.058 160.984 302.679 161.201 302.402 161.634C302.129 162.063 302 162.645 302.017 163.377H302.104C302.264 163.045 302.5 162.789 302.812 162.61C303.128 162.428 303.491 162.337 303.901 162.337C304.569 162.337 305.122 162.558 305.562 163.001C306.001 163.444 306.221 164.002 306.221 164.676C306.221 165.408 305.968 166.009 305.464 166.478C304.959 166.946 304.313 167.181 303.525 167.181ZM302.603 165.608C302.847 165.849 303.149 165.97 303.511 165.97C303.872 165.97 304.175 165.851 304.419 165.613C304.666 165.372 304.79 165.075 304.79 164.72C304.79 164.362 304.67 164.065 304.429 163.831C304.188 163.593 303.883 163.475 303.516 163.475C303.148 163.475 302.842 163.592 302.598 163.826C302.357 164.061 302.236 164.354 302.236 164.705C302.236 165.063 302.358 165.364 302.603 165.608Z" fill="#B3BEC8"/>
<path d="M353.025 167L356.028 161.253V161.165H352.474V159.949H357.513V161.18L354.568 167H353.025Z" fill="#B3BEC8"/>
<path d="M409.527 166.609C409 166.99 408.313 167.181 407.467 167.181C406.62 167.181 405.935 166.99 405.411 166.609C404.887 166.229 404.625 165.732 404.625 165.12C404.625 164.677 404.765 164.293 405.045 163.968C405.328 163.639 405.706 163.423 406.178 163.318V163.23C405.794 163.143 405.486 162.959 405.255 162.679C405.024 162.399 404.908 162.072 404.908 161.697C404.908 161.134 405.147 160.674 405.626 160.315C406.108 159.954 406.723 159.773 407.472 159.773C408.217 159.773 408.829 159.954 409.308 160.315C409.789 160.674 410.03 161.134 410.03 161.697C410.03 162.072 409.915 162.399 409.684 162.679C409.456 162.955 409.148 163.139 408.761 163.23V163.318C409.229 163.406 409.605 163.615 409.889 163.943C410.175 164.269 410.318 164.656 410.318 165.105C410.318 165.724 410.055 166.225 409.527 166.609ZM406.52 165.765C406.764 165.966 407.079 166.067 407.467 166.067C407.854 166.067 408.17 165.966 408.414 165.765C408.658 165.563 408.78 165.302 408.78 164.983C408.78 164.661 408.658 164.399 408.414 164.197C408.17 163.995 407.854 163.895 407.467 163.895C407.079 163.895 406.764 163.995 406.52 164.197C406.279 164.399 406.158 164.661 406.158 164.983C406.158 165.302 406.279 165.563 406.52 165.765ZM406.671 162.537C406.876 162.716 407.141 162.806 407.467 162.806C407.792 162.806 408.058 162.716 408.263 162.537C408.471 162.355 408.575 162.122 408.575 161.839C408.575 161.552 408.471 161.32 408.263 161.141C408.058 160.958 407.792 160.867 407.467 160.867C407.141 160.867 406.876 160.958 406.671 161.141C406.466 161.32 406.363 161.552 406.363 161.839C406.363 162.122 406.466 162.355 406.671 162.537Z" fill="#B3BEC8"/>
<path d="M459.291 167.181C458.624 167.181 458.052 167 457.577 166.639C457.102 166.274 456.814 165.799 456.713 165.213H458.173C458.241 165.444 458.376 165.628 458.578 165.765C458.783 165.901 459.024 165.97 459.301 165.97C459.783 165.97 460.16 165.753 460.434 165.32C460.71 164.887 460.84 164.305 460.824 163.572H460.78H460.746H460.736C460.577 163.904 460.339 164.161 460.023 164.344C459.711 164.523 459.35 164.612 458.939 164.612C458.269 164.612 457.714 164.393 457.274 163.953C456.838 163.51 456.62 162.952 456.62 162.278C456.62 161.546 456.872 160.945 457.377 160.477C457.882 160.008 458.528 159.773 459.315 159.773C459.823 159.773 460.276 159.882 460.673 160.101C461.073 160.315 461.396 160.63 461.64 161.043C462.034 161.655 462.23 162.448 462.23 163.421C462.23 164.593 461.97 165.512 461.449 166.18C460.928 166.847 460.209 167.181 459.291 167.181ZM458.412 163.123C458.653 163.357 458.957 163.475 459.325 163.475C459.693 163.475 459.997 163.359 460.238 163.128C460.482 162.894 460.604 162.599 460.604 162.244C460.604 161.886 460.482 161.587 460.238 161.346C459.994 161.102 459.691 160.979 459.33 160.979C458.969 160.979 458.664 161.1 458.417 161.341C458.173 161.582 458.051 161.878 458.051 162.229C458.051 162.591 458.171 162.889 458.412 163.123Z" fill="#B3BEC8"/>
<path d="M510.417 167V161.39H510.329L508.601 162.581V161.209L510.422 159.954H511.892V167H510.417ZM518.61 166.199C518.116 166.854 517.432 167.181 516.56 167.181C515.687 167.181 515.002 166.854 514.504 166.199C514.009 165.542 513.762 164.63 513.762 163.465C513.762 162.303 514.009 161.398 514.504 160.75C515.002 160.099 515.687 159.773 516.56 159.773C517.429 159.773 518.112 160.099 518.61 160.75C519.108 161.401 519.357 162.308 519.357 163.47C519.357 164.632 519.108 165.542 518.61 166.199ZM515.598 165.33C515.829 165.763 516.149 165.979 516.56 165.979C516.97 165.979 517.289 165.765 517.517 165.335C517.748 164.902 517.863 164.279 517.863 163.465C517.863 162.658 517.748 162.042 517.517 161.619C517.289 161.193 516.97 160.979 516.56 160.979C516.153 160.979 515.834 161.193 515.603 161.619C515.371 162.046 515.256 162.661 515.256 163.465C515.256 164.275 515.37 164.897 515.598 165.33Z" fill="#B3BEC8"/>
<path d="M567.417 167V161.39H567.329L565.601 162.581V161.209L567.422 159.954H568.892V167H567.417ZM572.554 167V161.39H572.466L570.737 162.581V161.209L572.559 159.954H574.028V167H572.554Z" fill="#B3BEC8"/>
<path d="M623.417 167V161.39H623.329L621.601 162.581V161.209L623.422 159.954H624.892V167H623.417ZM626.767 162.063C626.767 161.383 627.004 160.831 627.479 160.408C627.955 159.985 628.573 159.773 629.335 159.773C630.071 159.773 630.67 159.965 631.132 160.35C631.597 160.73 631.83 161.224 631.83 161.829C631.83 162.213 631.71 162.596 631.469 162.977C631.228 163.354 630.803 163.829 630.194 164.402L628.847 165.687V165.774H631.933V167H626.85V165.97L629.149 163.719C629.644 163.237 629.975 162.876 630.141 162.635C630.307 162.394 630.39 162.158 630.39 161.927C630.39 161.644 630.285 161.412 630.077 161.233C629.872 161.051 629.608 160.96 629.286 160.96C628.944 160.96 628.666 161.062 628.451 161.268C628.24 161.469 628.134 161.733 628.134 162.059V162.088H626.767V162.063Z" fill="#B3BEC8"/>
<path d="M680.417 167V161.39H680.329L678.601 162.581V161.209L680.422 159.954H681.892V167H680.417ZM685.568 163.943V162.845H686.428C686.763 162.845 687.033 162.755 687.238 162.576C687.447 162.397 687.551 162.164 687.551 161.878C687.551 161.595 687.448 161.37 687.243 161.204C687.041 161.035 686.768 160.95 686.423 160.95C686.081 160.95 685.804 161.04 685.593 161.219C685.381 161.398 685.266 161.64 685.246 161.946H683.884C683.91 161.279 684.154 160.75 684.616 160.359C685.078 159.969 685.694 159.773 686.462 159.773C687.185 159.773 687.779 159.952 688.244 160.311C688.713 160.665 688.947 161.119 688.947 161.673C688.947 162.08 688.828 162.43 688.591 162.723C688.356 163.016 688.042 163.203 687.648 163.284V163.372C688.133 163.427 688.516 163.606 688.796 163.909C689.079 164.209 689.221 164.59 689.221 165.052C689.221 165.459 689.102 165.825 688.864 166.15C688.63 166.473 688.301 166.725 687.878 166.907C687.455 167.09 686.979 167.181 686.452 167.181C685.668 167.181 685.03 166.98 684.538 166.58C684.047 166.18 683.785 165.647 683.752 164.983H685.163C685.186 165.283 685.314 165.521 685.549 165.696C685.783 165.869 686.089 165.955 686.467 165.955C686.835 165.955 687.134 165.861 687.365 165.672C687.6 165.483 687.717 165.239 687.717 164.939C687.717 164.63 687.603 164.388 687.375 164.212C687.147 164.033 686.836 163.943 686.442 163.943H685.568Z" fill="#B3BEC8"/>
<path d="M737.417 167V161.39H737.329L735.601 162.581V161.209L737.422 159.954H738.892V167H737.417ZM744.141 167V165.77H740.693V164.466C741.243 163.427 742.173 161.924 743.481 159.954H745.547V164.544H746.47V165.77H745.547V167H744.141ZM742.017 164.51V164.588H744.175V161.102H744.097C743.345 162.225 742.651 163.361 742.017 164.51Z" fill="#B3BEC8"/>
<path d="M795.417 167V161.39H795.329L793.601 162.581V161.209L795.422 159.954H796.892V167H795.417ZM801.511 167.181C800.752 167.181 800.131 166.977 799.646 166.57C799.164 166.16 798.911 165.636 798.889 164.998H800.251C800.293 165.291 800.432 165.527 800.666 165.706C800.9 165.885 801.185 165.975 801.521 165.975C801.901 165.975 802.209 165.857 802.443 165.623C802.681 165.389 802.8 165.081 802.8 164.7C802.8 164.313 802.681 164 802.443 163.763C802.206 163.525 801.9 163.406 801.525 163.406C800.982 163.406 800.58 163.618 800.319 164.041H799.001L799.353 159.954H803.781V161.18H800.495L800.339 162.991H800.427C800.746 162.532 801.244 162.303 801.921 162.303C802.588 162.303 803.135 162.524 803.562 162.967C803.991 163.41 804.206 163.976 804.206 164.666C804.206 165.415 803.959 166.022 803.464 166.487C802.969 166.95 802.318 167.181 801.511 167.181Z" fill="#B3BEC8"/>
<path d="M852.417 167V161.39H852.329L850.601 162.581V161.209L852.422 159.954H853.892V167H852.417ZM858.662 167.181C858.151 167.181 857.695 167.072 857.295 166.854C856.898 166.635 856.579 166.32 856.338 165.906C855.944 165.301 855.747 164.508 855.747 163.528C855.747 162.36 856.007 161.442 856.528 160.774C857.049 160.107 857.769 159.773 858.687 159.773C859.357 159.773 859.928 159.954 860.4 160.315C860.876 160.677 861.164 161.152 861.265 161.741H859.805C859.736 161.51 859.6 161.326 859.395 161.189C859.193 161.053 858.953 160.984 858.677 160.984C858.195 160.984 857.816 161.201 857.539 161.634C857.266 162.063 857.137 162.645 857.153 163.377H857.241C857.401 163.045 857.637 162.789 857.949 162.61C858.265 162.428 858.628 162.337 859.038 162.337C859.705 162.337 860.259 162.558 860.698 163.001C861.138 163.444 861.357 164.002 861.357 164.676C861.357 165.408 861.105 166.009 860.601 166.478C860.096 166.946 859.45 167.181 858.662 167.181ZM857.739 165.608C857.983 165.849 858.286 165.97 858.647 165.97C859.009 165.97 859.312 165.851 859.556 165.613C859.803 165.372 859.927 165.075 859.927 164.72C859.927 164.362 859.806 164.065 859.565 163.831C859.325 163.593 859.02 163.475 858.652 163.475C858.285 163.475 857.979 163.592 857.734 163.826C857.493 164.061 857.373 164.354 857.373 164.705C857.373 165.063 857.495 165.364 857.739 165.608Z" fill="#B3BEC8"/>
<path d="M909.417 167V161.39H909.329L907.601 162.581V161.209L909.422 159.954H910.892V167H909.417ZM913.162 167L916.165 161.253V161.165H912.61V159.949H917.649V161.18L914.705 167H913.162Z" fill="#B3BEC8"/>
<path d="M966.417 167V161.39H966.329L964.601 162.581V161.209L966.422 159.954H967.892V167H966.417ZM974.664 166.609C974.137 166.99 973.45 167.181 972.604 167.181C971.757 167.181 971.072 166.99 970.548 166.609C970.024 166.229 969.762 165.732 969.762 165.12C969.762 164.677 969.902 164.293 970.182 163.968C970.465 163.639 970.842 163.423 971.314 163.318V163.23C970.93 163.143 970.623 162.959 970.392 162.679C970.16 162.399 970.045 162.072 970.045 161.697C970.045 161.134 970.284 160.674 970.763 160.315C971.244 159.954 971.86 159.773 972.608 159.773C973.354 159.773 973.966 159.954 974.444 160.315C974.926 160.674 975.167 161.134 975.167 161.697C975.167 162.072 975.051 162.399 974.82 162.679C974.592 162.955 974.285 163.139 973.897 163.23V163.318C974.366 163.406 974.742 163.615 975.025 163.943C975.312 164.269 975.455 164.656 975.455 165.105C975.455 165.724 975.191 166.225 974.664 166.609ZM971.656 165.765C971.9 165.966 972.216 166.067 972.604 166.067C972.991 166.067 973.307 165.966 973.551 165.765C973.795 165.563 973.917 165.302 973.917 164.983C973.917 164.661 973.795 164.399 973.551 164.197C973.307 163.995 972.991 163.895 972.604 163.895C972.216 163.895 971.9 163.995 971.656 164.197C971.415 164.399 971.295 164.661 971.295 164.983C971.295 165.302 971.415 165.563 971.656 165.765ZM971.808 162.537C972.013 162.716 972.278 162.806 972.604 162.806C972.929 162.806 973.194 162.716 973.399 162.537C973.608 162.355 973.712 162.122 973.712 161.839C973.712 161.552 973.608 161.32 973.399 161.141C973.194 160.958 972.929 160.867 972.604 160.867C972.278 160.867 972.013 160.958 971.808 161.141C971.603 161.32 971.5 161.552 971.5 161.839C971.5 162.122 971.603 162.355 971.808 162.537Z" fill="#B3BEC8"/>
<path d="M1024.42 167V161.39H1024.33L1022.6 162.581V161.209L1024.42 159.954H1025.89V167H1024.42ZM1030.43 167.181C1029.76 167.181 1029.19 167 1028.71 166.639C1028.24 166.274 1027.95 165.799 1027.85 165.213H1029.31C1029.38 165.444 1029.51 165.628 1029.71 165.765C1029.92 165.901 1030.16 165.97 1030.44 165.97C1030.92 165.97 1031.3 165.753 1031.57 165.32C1031.85 164.887 1031.98 164.305 1031.96 163.572H1031.92H1031.88H1031.87C1031.71 163.904 1031.48 164.161 1031.16 164.344C1030.85 164.523 1030.49 164.612 1030.08 164.612C1029.41 164.612 1028.85 164.393 1028.41 163.953C1027.97 163.51 1027.76 162.952 1027.76 162.278C1027.76 161.546 1028.01 160.945 1028.51 160.477C1029.02 160.008 1029.66 159.773 1030.45 159.773C1030.96 159.773 1031.41 159.882 1031.81 160.101C1032.21 160.315 1032.53 160.63 1032.78 161.043C1033.17 161.655 1033.37 162.448 1033.37 163.421C1033.37 164.593 1033.11 165.512 1032.59 166.18C1032.07 166.847 1031.35 167.181 1030.43 167.181ZM1029.55 163.123C1029.79 163.357 1030.09 163.475 1030.46 163.475C1030.83 163.475 1031.13 163.359 1031.38 163.128C1031.62 162.894 1031.74 162.599 1031.74 162.244C1031.74 161.886 1031.62 161.587 1031.38 161.346C1031.13 161.102 1030.83 160.979 1030.47 160.979C1030.11 160.979 1029.8 161.1 1029.55 161.341C1029.31 161.582 1029.19 161.878 1029.19 162.229C1029.19 162.591 1029.31 162.889 1029.55 163.123Z" fill="#B3BEC8"/>
<path d="M1079.63 162.063C1079.63 161.383 1079.87 160.831 1080.34 160.408C1080.82 159.985 1081.44 159.773 1082.2 159.773C1082.93 159.773 1083.53 159.965 1084 160.35C1084.46 160.73 1084.69 161.224 1084.69 161.829C1084.69 162.213 1084.57 162.596 1084.33 162.977C1084.09 163.354 1083.67 163.829 1083.06 164.402L1081.71 165.687V165.774H1084.8V167H1079.71V165.97L1082.01 163.719C1082.51 163.237 1082.84 162.876 1083 162.635C1083.17 162.394 1083.25 162.158 1083.25 161.927C1083.25 161.644 1083.15 161.412 1082.94 161.233C1082.74 161.051 1082.47 160.96 1082.15 160.96C1081.81 160.96 1081.53 161.062 1081.31 161.268C1081.1 161.469 1081 161.733 1081 162.059V162.088H1079.63V162.063ZM1090.91 166.199C1090.41 166.854 1089.73 167.181 1088.86 167.181C1087.99 167.181 1087.3 166.854 1086.8 166.199C1086.31 165.542 1086.06 164.63 1086.06 163.465C1086.06 162.303 1086.31 161.398 1086.8 160.75C1087.3 160.099 1087.99 159.773 1088.86 159.773C1089.73 159.773 1090.41 160.099 1090.91 160.75C1091.41 161.401 1091.66 162.308 1091.66 163.47C1091.66 164.632 1091.41 165.542 1090.91 166.199ZM1087.9 165.33C1088.13 165.763 1088.45 165.979 1088.86 165.979C1089.27 165.979 1089.59 165.765 1089.82 165.335C1090.05 164.902 1090.16 164.279 1090.16 163.465C1090.16 162.658 1090.05 162.042 1089.82 161.619C1089.59 161.193 1089.27 160.979 1088.86 160.979C1088.45 160.979 1088.13 161.193 1087.9 161.619C1087.67 162.046 1087.55 162.661 1087.55 163.465C1087.55 164.275 1087.67 164.897 1087.9 165.33Z" fill="#B3BEC8"/>
<path d="M1128.63 162.063C1128.63 161.383 1128.87 160.831 1129.34 160.408C1129.82 159.985 1130.44 159.773 1131.2 159.773C1131.93 159.773 1132.53 159.965 1133 160.35C1133.46 160.73 1133.69 161.224 1133.69 161.829C1133.69 162.213 1133.57 162.596 1133.33 162.977C1133.09 163.354 1132.67 163.829 1132.06 164.402L1130.71 165.687V165.774H1133.8V167H1128.71V165.97L1131.01 163.719C1131.51 163.237 1131.84 162.876 1132 162.635C1132.17 162.394 1132.25 162.158 1132.25 161.927C1132.25 161.644 1132.15 161.412 1131.94 161.233C1131.74 161.051 1131.47 160.96 1131.15 160.96C1130.81 160.96 1130.53 161.062 1130.31 161.268C1130.1 161.469 1130 161.733 1130 162.059V162.088H1128.63V162.063ZM1136.85 167V161.39H1136.76L1135.04 162.581V161.209L1136.86 159.954H1138.33V167H1136.85Z" fill="#B3BEC8"/>
<path d="M486.828 90H485.438V78.7266H486.805L492.922 87.5H493.047V78.7266H494.438V90H493.07L486.953 81.2578H486.828V90ZM503.438 88.9844C502.745 89.7604 501.799 90.1484 500.602 90.1484C499.404 90.1484 498.456 89.7604 497.758 88.9844C497.065 88.2031 496.719 87.138 496.719 85.7891C496.719 84.4349 497.065 83.3698 497.758 82.5938C498.451 81.8177 499.398 81.4297 500.602 81.4297C501.805 81.4297 502.753 81.8177 503.445 82.5938C504.138 83.3698 504.484 84.4349 504.484 85.7891C504.484 87.138 504.135 88.2031 503.438 88.9844ZM498.758 88.1172C499.19 88.6641 499.805 88.9375 500.602 88.9375C501.398 88.9375 502.013 88.6641 502.445 88.1172C502.878 87.5651 503.094 86.7891 503.094 85.7891C503.094 84.7891 502.878 84.0156 502.445 83.4688C502.013 82.9167 501.398 82.6406 500.602 82.6406C499.805 82.6406 499.19 82.9167 498.758 83.4688C498.326 84.0156 498.109 84.7891 498.109 85.7891C498.109 86.7891 498.326 87.5651 498.758 88.1172ZM510.914 83.8828C510.914 83.1849 511.214 82.6016 511.812 82.1328C512.411 81.6641 513.159 81.4297 514.055 81.4297C514.935 81.4297 515.661 81.6328 516.234 82.0391C516.807 82.4453 517.138 82.9948 517.227 83.6875H515.898C515.805 83.3438 515.596 83.0729 515.273 82.875C514.956 82.6719 514.547 82.5703 514.047 82.5703C513.542 82.5703 513.117 82.6875 512.773 82.9219C512.435 83.1562 512.266 83.4583 512.266 83.8281C512.266 84.1146 512.383 84.3542 512.617 84.5469C512.857 84.7344 513.227 84.888 513.727 85.0078L515.023 85.3203C515.826 85.513 516.417 85.7917 516.797 86.1562C517.182 86.5208 517.375 87.0026 517.375 87.6016C517.375 88.3464 517.055 88.9583 516.414 89.4375C515.773 89.9115 514.969 90.1484 514 90.1484C513.062 90.1484 512.294 89.9401 511.695 89.5234C511.096 89.1068 510.76 88.5495 510.688 87.8516H512.07C512.185 88.2161 512.411 88.5026 512.75 88.7109C513.089 88.9141 513.521 89.0156 514.047 89.0156C514.615 89.0156 515.081 88.8932 515.445 88.6484C515.81 88.4036 515.992 88.0885 515.992 87.7031C515.992 87.1302 515.547 86.7344 514.656 86.5156L513.211 86.1641C512.414 85.9714 511.831 85.6953 511.461 85.3359C511.096 84.9714 510.914 84.487 510.914 83.8828ZM522.078 88.9688C522.771 88.9688 523.344 88.7682 523.797 88.3672C524.255 87.9661 524.484 87.4635 524.484 86.8594V86.0859L522.219 86.2344C521.583 86.276 521.117 86.4089 520.82 86.6328C520.523 86.8568 520.375 87.1823 520.375 87.6094C520.375 88.0312 520.534 88.3646 520.852 88.6094C521.169 88.849 521.578 88.9688 522.078 88.9688ZM521.828 90.1484C521 90.1484 520.318 89.9219 519.781 89.4688C519.25 89.0104 518.984 88.401 518.984 87.6406C518.984 86.8906 519.25 86.3021 519.781 85.875C520.312 85.4479 521.07 85.2057 522.055 85.1484L524.484 85V84.2344C524.484 83.7135 524.323 83.3151 524 83.0391C523.677 82.763 523.203 82.625 522.578 82.625C522.073 82.625 521.654 82.7161 521.32 82.8984C520.987 83.0807 520.773 83.3385 520.68 83.6719H519.32C519.409 83 519.755 82.4583 520.359 82.0469C520.969 81.6354 521.724 81.4297 522.625 81.4297C523.646 81.4297 524.435 81.6771 524.992 82.1719C525.549 82.6667 525.828 83.3542 525.828 84.2344V90H524.547V88.7578H524.422C524.151 89.2057 523.792 89.5495 523.344 89.7891C522.896 90.0286 522.391 90.1484 521.828 90.1484ZM528.391 90V78.2344H529.734V90H528.391ZM535.703 82.6172C535.031 82.6172 534.479 82.8438 534.047 83.2969C533.615 83.75 533.372 84.349 533.32 85.0938H537.961C537.945 84.349 537.732 83.75 537.32 83.2969C536.909 82.8438 536.37 82.6172 535.703 82.6172ZM537.922 87.8203H539.266C539.062 88.5495 538.648 89.1198 538.023 89.5312C537.404 89.9427 536.635 90.1484 535.719 90.1484C534.552 90.1484 533.628 89.7578 532.945 88.9766C532.263 88.1901 531.922 87.1302 531.922 85.7969C531.922 84.4688 532.266 83.4089 532.953 82.6172C533.641 81.8255 534.562 81.4297 535.719 81.4297C536.854 81.4297 537.747 81.8073 538.398 82.5625C539.049 83.3177 539.375 84.3516 539.375 85.6641V86.1797H533.32V86.2422C533.357 87.0755 533.591 87.737 534.023 88.2266C534.461 88.7161 535.036 88.9609 535.75 88.9609C536.839 88.9609 537.562 88.5807 537.922 87.8203ZM541.289 83.8828C541.289 83.1849 541.589 82.6016 542.188 82.1328C542.786 81.6641 543.534 81.4297 544.43 81.4297C545.31 81.4297 546.036 81.6328 546.609 82.0391C547.182 82.4453 547.513 82.9948 547.602 83.6875H546.273C546.18 83.3438 545.971 83.0729 545.648 82.875C545.331 82.6719 544.922 82.5703 544.422 82.5703C543.917 82.5703 543.492 82.6875 543.148 82.9219C542.81 83.1562 542.641 83.4583 542.641 83.8281C542.641 84.1146 542.758 84.3542 542.992 84.5469C543.232 84.7344 543.602 84.888 544.102 85.0078L545.398 85.3203C546.201 85.513 546.792 85.7917 547.172 86.1562C547.557 86.5208 547.75 87.0026 547.75 87.6016C547.75 88.3464 547.43 88.9583 546.789 89.4375C546.148 89.9115 545.344 90.1484 544.375 90.1484C543.438 90.1484 542.669 89.9401 542.07 89.5234C541.471 89.1068 541.135 88.5495 541.062 87.8516H542.445C542.56 88.2161 542.786 88.5026 543.125 88.7109C543.464 88.9141 543.896 89.0156 544.422 89.0156C544.99 89.0156 545.456 88.8932 545.82 88.6484C546.185 88.4036 546.367 88.0885 546.367 87.7031C546.367 87.1302 545.922 86.7344 545.031 86.5156L543.586 86.1641C542.789 85.9714 542.206 85.6953 541.836 85.3359C541.471 84.9714 541.289 84.487 541.289 83.8828ZM557.492 90.1484C556.414 90.1484 555.555 89.7526 554.914 88.9609C554.273 88.1693 553.953 87.112 553.953 85.7891C553.953 84.4714 554.273 83.4167 554.914 82.625C555.56 81.8281 556.419 81.4297 557.492 81.4297C558.081 81.4297 558.607 81.5625 559.07 81.8281C559.539 82.0885 559.893 82.4479 560.133 82.9062H560.25V78.2344H561.594V90H560.312V88.6562H560.188C559.922 89.125 559.552 89.4922 559.078 89.7578C558.604 90.0182 558.076 90.1484 557.492 90.1484ZM557.805 82.6406C557.039 82.6406 556.438 82.9219 556 83.4844C555.562 84.0417 555.344 84.8099 555.344 85.7891C555.344 86.7734 555.56 87.5443 555.992 88.1016C556.43 88.6589 557.034 88.9375 557.805 88.9375C558.57 88.9375 559.174 88.6562 559.617 88.0938C560.06 87.5312 560.281 86.763 560.281 85.7891C560.281 84.8255 560.057 84.0599 559.609 83.4922C559.167 82.9245 558.565 82.6406 557.805 82.6406ZM566.797 88.9688C567.49 88.9688 568.062 88.7682 568.516 88.3672C568.974 87.9661 569.203 87.4635 569.203 86.8594V86.0859L566.938 86.2344C566.302 86.276 565.836 86.4089 565.539 86.6328C565.242 86.8568 565.094 87.1823 565.094 87.6094C565.094 88.0312 565.253 88.3646 565.57 88.6094C565.888 88.849 566.297 88.9688 566.797 88.9688ZM566.547 90.1484C565.719 90.1484 565.036 89.9219 564.5 89.4688C563.969 89.0104 563.703 88.401 563.703 87.6406C563.703 86.8906 563.969 86.3021 564.5 85.875C565.031 85.4479 565.789 85.2057 566.773 85.1484L569.203 85V84.2344C569.203 83.7135 569.042 83.3151 568.719 83.0391C568.396 82.763 567.922 82.625 567.297 82.625C566.792 82.625 566.372 82.7161 566.039 82.8984C565.706 83.0807 565.492 83.3385 565.398 83.6719H564.039C564.128 83 564.474 82.4583 565.078 82.0469C565.688 81.6354 566.443 81.4297 567.344 81.4297C568.365 81.4297 569.154 81.6771 569.711 82.1719C570.268 82.6667 570.547 83.3542 570.547 84.2344V90H569.266V88.7578H569.141C568.87 89.2057 568.51 89.5495 568.062 89.7891C567.615 90.0286 567.109 90.1484 566.547 90.1484ZM573.594 79.3984H574.938V81.5781H576.812V82.7031H574.938V87.4688C574.938 87.9635 575.036 88.3229 575.234 88.5469C575.432 88.7708 575.75 88.8828 576.188 88.8828C576.38 88.8828 576.589 88.8724 576.812 88.8516V89.9844C576.516 90.0365 576.253 90.0625 576.023 90.0625C575.154 90.0625 574.531 89.888 574.156 89.5391C573.781 89.1901 573.594 88.6146 573.594 87.8125V82.7031H572.234V81.5781H573.594V79.3984ZM581.438 88.9688C582.13 88.9688 582.703 88.7682 583.156 88.3672C583.615 87.9661 583.844 87.4635 583.844 86.8594V86.0859L581.578 86.2344C580.943 86.276 580.477 86.4089 580.18 86.6328C579.883 86.8568 579.734 87.1823 579.734 87.6094C579.734 88.0312 579.893 88.3646 580.211 88.6094C580.529 88.849 580.938 88.9688 581.438 88.9688ZM581.188 90.1484C580.359 90.1484 579.677 89.9219 579.141 89.4688C578.609 89.0104 578.344 88.401 578.344 87.6406C578.344 86.8906 578.609 86.3021 579.141 85.875C579.672 85.4479 580.43 85.2057 581.414 85.1484L583.844 85V84.2344C583.844 83.7135 583.682 83.3151 583.359 83.0391C583.036 82.763 582.562 82.625 581.938 82.625C581.432 82.625 581.013 82.7161 580.68 82.8984C580.346 83.0807 580.133 83.3385 580.039 83.6719H578.68C578.768 83 579.115 82.4583 579.719 82.0469C580.328 81.6354 581.083 81.4297 581.984 81.4297C583.005 81.4297 583.794 81.6771 584.352 82.1719C584.909 82.6667 585.188 83.3542 585.188 84.2344V90H583.906V88.7578H583.781C583.51 89.2057 583.151 89.5495 582.703 89.7891C582.255 90.0286 581.75 90.1484 581.188 90.1484ZM594.781 88.9688C595.474 88.9688 596.047 88.7682 596.5 88.3672C596.958 87.9661 597.188 87.4635 597.188 86.8594V86.0859L594.922 86.2344C594.286 86.276 593.82 86.4089 593.523 86.6328C593.227 86.8568 593.078 87.1823 593.078 87.6094C593.078 88.0312 593.237 88.3646 593.555 88.6094C593.872 88.849 594.281 88.9688 594.781 88.9688ZM594.531 90.1484C593.703 90.1484 593.021 89.9219 592.484 89.4688C591.953 89.0104 591.688 88.401 591.688 87.6406C591.688 86.8906 591.953 86.3021 592.484 85.875C593.016 85.4479 593.773 85.2057 594.758 85.1484L597.188 85V84.2344C597.188 83.7135 597.026 83.3151 596.703 83.0391C596.38 82.763 595.906 82.625 595.281 82.625C594.776 82.625 594.357 82.7161 594.023 82.8984C593.69 83.0807 593.477 83.3385 593.383 83.6719H592.023C592.112 83 592.458 82.4583 593.062 82.0469C593.672 81.6354 594.427 81.4297 595.328 81.4297C596.349 81.4297 597.138 81.6771 597.695 82.1719C598.253 82.6667 598.531 83.3542 598.531 84.2344V90H597.25V88.7578H597.125C596.854 89.2057 596.495 89.5495 596.047 89.7891C595.599 90.0286 595.094 90.1484 594.531 90.1484ZM607.578 81.5781L604.461 90H603.086L599.969 81.5781H601.406L603.711 88.5156H603.836L606.141 81.5781H607.578ZM611.656 88.9688C612.349 88.9688 612.922 88.7682 613.375 88.3672C613.833 87.9661 614.062 87.4635 614.062 86.8594V86.0859L611.797 86.2344C611.161 86.276 610.695 86.4089 610.398 86.6328C610.102 86.8568 609.953 87.1823 609.953 87.6094C609.953 88.0312 610.112 88.3646 610.43 88.6094C610.747 88.849 611.156 88.9688 611.656 88.9688ZM611.406 90.1484C610.578 90.1484 609.896 89.9219 609.359 89.4688C608.828 89.0104 608.562 88.401 608.562 87.6406C608.562 86.8906 608.828 86.3021 609.359 85.875C609.891 85.4479 610.648 85.2057 611.633 85.1484L614.062 85V84.2344C614.062 83.7135 613.901 83.3151 613.578 83.0391C613.255 82.763 612.781 82.625 612.156 82.625C611.651 82.625 611.232 82.7161 610.898 82.8984C610.565 83.0807 610.352 83.3385 610.258 83.6719H608.898C608.987 83 609.333 82.4583 609.938 82.0469C610.547 81.6354 611.302 81.4297 612.203 81.4297C613.224 81.4297 614.013 81.6771 614.57 82.1719C615.128 82.6667 615.406 83.3542 615.406 84.2344V90H614.125V88.7578H614C613.729 89.2057 613.37 89.5495 612.922 89.7891C612.474 90.0286 611.969 90.1484 611.406 90.1484ZM617.922 90V81.5781H619.266V90H617.922ZM619.258 79.5938C619.076 79.776 618.854 79.8672 618.594 79.8672C618.333 79.8672 618.112 79.776 617.93 79.5938C617.747 79.4062 617.656 79.1849 617.656 78.9297C617.656 78.6745 617.747 78.4557 617.93 78.2734C618.112 78.0859 618.333 77.9922 618.594 77.9922C618.854 77.9922 619.076 78.0859 619.258 78.2734C619.44 78.4557 619.531 78.6745 619.531 78.9297C619.531 79.1849 619.44 79.4062 619.258 79.5938ZM621.906 90V78.2344H623.25V90H621.906ZM628.453 88.9688C629.146 88.9688 629.719 88.7682 630.172 88.3672C630.63 87.9661 630.859 87.4635 630.859 86.8594V86.0859L628.594 86.2344C627.958 86.276 627.492 86.4089 627.195 86.6328C626.898 86.8568 626.75 87.1823 626.75 87.6094C626.75 88.0312 626.909 88.3646 627.227 88.6094C627.544 88.849 627.953 88.9688 628.453 88.9688ZM628.203 90.1484C627.375 90.1484 626.693 89.9219 626.156 89.4688C625.625 89.0104 625.359 88.401 625.359 87.6406C625.359 86.8906 625.625 86.3021 626.156 85.875C626.688 85.4479 627.445 85.2057 628.43 85.1484L630.859 85V84.2344C630.859 83.7135 630.698 83.3151 630.375 83.0391C630.052 82.763 629.578 82.625 628.953 82.625C628.448 82.625 628.029 82.7161 627.695 82.8984C627.362 83.0807 627.148 83.3385 627.055 83.6719H625.695C625.784 83 626.13 82.4583 626.734 82.0469C627.344 81.6354 628.099 81.4297 629 81.4297C630.021 81.4297 630.81 81.6771 631.367 82.1719C631.924 82.6667 632.203 83.3542 632.203 84.2344V90H630.922V88.7578H630.797C630.526 89.2057 630.167 89.5495 629.719 89.7891C629.271 90.0286 628.766 90.1484 628.203 90.1484ZM638.875 90.1484C638.292 90.1484 637.76 90.0182 637.281 89.7578C636.807 89.4922 636.438 89.125 636.172 88.6562H636.047V90H634.766V78.2344H636.109V82.9062H636.234C636.464 82.4531 636.815 82.0938 637.289 81.8281C637.768 81.5625 638.297 81.4297 638.875 81.4297C639.948 81.4297 640.805 81.8255 641.445 82.6172C642.086 83.4089 642.406 84.4661 642.406 85.7891C642.406 87.1068 642.083 88.1641 641.438 88.9609C640.797 89.7526 639.943 90.1484 638.875 90.1484ZM638.562 82.6406C637.797 82.6406 637.19 82.9219 636.742 83.4844C636.299 84.0469 636.078 84.8151 636.078 85.7891C636.078 86.763 636.299 87.5312 636.742 88.0938C637.19 88.6562 637.797 88.9375 638.562 88.9375C639.333 88.9375 639.935 88.6589 640.367 88.1016C640.799 87.5443 641.016 86.7734 641.016 85.7891C641.016 84.8047 640.799 84.0339 640.367 83.4766C639.935 82.9193 639.333 82.6406 638.562 82.6406ZM644.594 90V78.2344H645.938V90H644.594ZM651.906 82.6172C651.234 82.6172 650.682 82.8438 650.25 83.2969C649.818 83.75 649.576 84.349 649.523 85.0938H654.164C654.148 84.349 653.935 83.75 653.523 83.2969C653.112 82.8438 652.573 82.6172 651.906 82.6172ZM654.125 87.8203H655.469C655.266 88.5495 654.852 89.1198 654.227 89.5312C653.607 89.9427 652.839 90.1484 651.922 90.1484C650.755 90.1484 649.831 89.7578 649.148 88.9766C648.466 88.1901 648.125 87.1302 648.125 85.7969C648.125 84.4688 648.469 83.4089 649.156 82.6172C649.844 81.8255 650.766 81.4297 651.922 81.4297C653.057 81.4297 653.951 81.8073 654.602 82.5625C655.253 83.3177 655.578 84.3516 655.578 85.6641V86.1797H649.523V86.2422C649.56 87.0755 649.794 87.737 650.227 88.2266C650.664 88.7161 651.24 88.9609 651.953 88.9609C653.042 88.9609 653.766 88.5807 654.125 87.8203Z" fill="#B3BEC8"/>
</svg>
