<?xml version="1.0" encoding="UTF-8"?>
<svg width="70px" height="50px" viewBox="0 0 70 50" version="1.1" xmlns="http://www.w3.org/2000/svg" xmlns:xlink="http://www.w3.org/1999/xlink">
    <title>jcb</title>
    <g id="Page-1" stroke="none" stroke-width="1" fill="none" fill-rule="evenodd">
        <g id="CREDIT-CARDS" transform="translate(-400.000000, 0.000000)">
            <g id="jcb" transform="translate(400.000000, 0.000000)">
                <path d="M0,7.49902559 C0,3.35742812 3.36527458,0 7.5096201,0 L22,0 L22,42.5009744 C22,46.6425719 18.6347254,50 14.4903799,50 L0,50 L0,7.49902559 Z" id="visa-bg" fill="#006FBC"></path>
                <path d="M0,33.5476402 L0,29.6000458 C2.17607342,30.8708044 4.66343361,31.5878872 7.22000002,31.6815046 C10.146,31.6815046 11.78,29.7435947 11.78,27.0879405 L11.78,16.25 L19,16.25 L19,27.0879405 C19,31.3226324 16.644,34.6960329 8.626,34.6960329 C5.70791283,34.6965714 2.80421061,34.3099978 0,33.5476402 Z" id="Path" fill="#FFFFFF" fill-rule="nonzero"></path>
                <path d="M25,7.49902559 C25,3.35742812 28.3507332,0 32.4925436,0 L46,0 L46,42.5009744 C46,46.6425719 42.6492668,50 38.5074564,50 L25,50 L25,7.49902559 Z" id="visa-bg" fill="#E60039"></path>
                <path d="M25,19.0193588 C27.204,17.0096745 31.004,15.7536217 37.1600001,16.0407195 C40.5039998,16.1842684 44,17.1173361 44,17.1173361 L44,21.1008175 C42.0004434,19.9586797 39.752829,19.25931 37.4260001,19.055246 C32.752,18.6604865 29.902,21.1367047 29.902,25.4790583 C29.902,29.8214119 32.752,32.2976302 37.4260001,31.9387579 C39.7542457,31.7164852 42.0003899,31.0053114 44,29.8572991 L44,33.8048934 C44,33.8048934 40.5039998,34.7738484 37.1600001,34.917397 C31.004,35.204495 27.204,33.9484421 25,31.9387579 L25,19.0193588 Z" id="Path" fill="#FFFFFF" fill-rule="nonzero"></path>
                <path d="M49,7.49902559 C49,3.35742812 52.3507332,0 56.4925436,0 L70,0 L70,42.5009744 C70,46.6425719 66.6492668,50 62.5074564,50 L49,50 L49,7.49902559 Z" id="visa-bg" fill="#5CB531"></path>
                <path d="M68,29.7782713 C68,32.6492487 65.6439999,34.4436099 62.4900001,34.4436099 L49,34.4436099 L49,16.5 L61.274,16.5 L62.1480001,16.5358872 C64.9219999,16.6794361 66.9739999,18.2225865 66.9739999,20.8782408 C66.9739999,22.9596995 65.5679998,24.7540605 63.0220001,25.1847072 L63.0220001,25.2923688 C65.8339998,25.4718049 68,27.1585042 68,29.7782713 Z M58.3099999,19.3350904 C58.1464537,19.3119883 57.9813633,19.299995 57.8160001,19.2992031 L53.2559999,19.2992031 L53.2559999,23.8209928 L58.3099999,23.8209928 C59.26,23.6056695 60.058,22.7802634 60.058,21.560098 C60.058,20.3399325 59.26,19.5145264 58.3099999,19.3350904 L58.3099999,19.3350904 Z M58.8800001,26.6560832 C58.6789587,26.6262687 58.4754079,26.6142541 58.272,26.6201959 L53.2559999,26.6201959 L53.2559999,31.536745 L58.272,31.536745 L58.8800001,31.4649706 C59.8300002,31.2496472 60.6280001,30.3165795 60.6280001,29.0605269 C60.6280001,27.8044742 59.868,26.9072937 58.8800001,26.6560832 L58.8800001,26.6560832 Z" id="Shape" fill="#FFFFFF" fill-rule="nonzero"></path>
            </g>
        </g>
    </g>
</svg>