<svg width="300" height="46" viewBox="0 0 300 46" fill="none" xmlns="http://www.w3.org/2000/svg">
<path fill-rule="evenodd" clip-rule="evenodd" d="M22.8175 45.6349C32.0767 45.6349 37.5 41.0053 40.873 35.7143L34.2593 32.3413C32.1429 36.045 27.9101 38.7566 22.8175 38.7566C14.418 38.7566 7.93651 32.0767 7.93651 22.8175C7.93651 13.5582 14.418 6.87831 22.8175 6.87831C27.9101 6.87831 32.1429 9.65608 34.2593 13.2937L40.873 9.92064C37.5661 4.62963 32.0767 0 22.8175 0C10.119 0 0 9.25926 0 22.8175C0 36.3757 10.119 45.6349 22.8175 45.6349ZM55.0265 22.8175C55.0265 9.65609 64.3519 0 77.5794 0C90.8069 0 100.132 9.65609 100.132 22.8175C100.132 35.9788 90.8069 45.6349 77.5794 45.6349C64.3519 45.6349 55.0265 35.9788 55.0265 22.8175ZM92.1958 22.8175C92.1958 13.6905 86.4418 6.87831 77.5794 6.87831C68.6508 6.87831 62.963 13.6905 62.963 22.8175C62.963 31.8783 68.6508 38.7566 77.5794 38.7566C86.4418 38.7566 92.1958 31.8783 92.1958 22.8175ZM117.526 44.8413V0.727513H136.905C146.164 0.727513 151.323 7.07672 151.323 14.5503C151.323 22.0238 146.098 28.373 136.905 28.373H125.265V44.8413H117.526ZM143.386 14.5503C143.386 10.3175 140.212 7.53968 135.847 7.53968H125.265V21.5608H135.847C140.212 21.5608 143.386 18.7831 143.386 14.5503ZM167.659 44.8413V0.727513H187.037C196.296 0.727513 201.455 7.07672 201.455 14.5503C201.455 22.0238 196.23 28.373 187.037 28.373H175.397V44.8413H167.659ZM193.519 14.5503C193.519 10.3175 190.344 7.53968 185.979 7.53968H175.397V21.5608H185.979C190.344 21.5608 193.519 18.7831 193.519 14.5503ZM217.791 44.8413H248.016V38.0291H225.529V25.7936H247.553V18.9815H225.529V7.53968H248.016V0.727513H217.791V44.8413ZM291.071 44.8413L281.283 28.373H273.611V44.8413H265.873V0.727513H285.251C293.981 0.727513 299.669 6.41534 299.669 14.5503C299.669 22.4206 294.511 26.6534 289.22 27.5132L300 44.8413H291.071ZM291.733 14.5503C291.733 10.3175 288.558 7.53968 284.193 7.53968H273.611V21.5608H284.193C288.558 21.5608 291.733 18.7831 291.733 14.5503Z" fill="#31325C"/>
</svg>
