<?xml version="1.0" encoding="UTF-8"?>
<svg width="70px" height="50px" viewBox="0 0 70 50" version="1.1" xmlns="http://www.w3.org/2000/svg" xmlns:xlink="http://www.w3.org/1999/xlink">
    <title>mastercard</title>
    <g id="Page-1" stroke="none" stroke-width="1" fill="none" fill-rule="evenodd">
        <g id="CREDIT-CARDS" transform="translate(-80.000000, 0.000000)">
            <g id="mastercard" transform="translate(80.000000, 0.000000)">
                <rect id="mastercard-bg" fill="#353A48" x="0" y="0" width="70" height="50" rx="6.63157895"></rect>
                <g id="mastercard-logo" transform="translate(12.000000, 11.000000)">
                    <path d="M31.6842105,0.253919708 C39.2127237,0.253919708 45.3157895,6.43506309 45.3157895,14.0598899 C45.3157895,21.6847166 39.2127237,27.86586 31.6842105,27.86586 C28.3099741,27.86586 25.2220787,26.6242036 22.8416619,24.5674159 C20.4618889,26.6243013 17.3741038,27.86586 14,27.86586 C6.47148683,27.86586 0.368421053,21.6847166 0.368421053,14.0598899 C0.368421053,6.43506309 6.47148683,0.253919708 14,0.253919708 C17.3741038,0.253919708 20.4618889,1.49547841 22.8422678,3.55212116 C25.2220787,1.49557608 28.3099741,0.253919708 31.6842105,0.253919708 Z" id="Combined-Shape" fill="#FF5E00"></path>
                    <path d="M14,0.253919708 C17.3741038,0.253919708 20.4618889,1.49547841 22.8422678,3.55212116 C19.9109514,6.0846302 18.0526316,9.85246677 18.0526316,14.0598899 C18.0526316,18.2673129 19.9109514,22.0351495 22.8416619,24.5674159 C20.4618889,26.6243013 17.3741038,27.86586 14,27.86586 C6.47148683,27.86586 0.368421053,21.6847166 0.368421053,14.0598899 C0.368421053,6.43506309 6.47148683,0.253919708 14,0.253919708 Z" id="Combined-Shape" fill="#ED0006"></path>
                    <path d="M31.6842105,0.253919708 C39.2127237,0.253919708 45.3157895,6.43506309 45.3157895,14.0598899 C45.3157895,21.6847166 39.2127237,27.86586 31.6842105,27.86586 C28.3097676,27.86586 25.2217009,26.6240517 22.841225,24.5670384 C25.7734438,22.0347751 27.6315789,18.2671039 27.6315789,14.0598899 C27.6315789,9.85267584 25.7734438,6.08500466 22.8429855,3.55274135 C25.2217009,1.49572801 28.3097676,0.253919708 31.6842105,0.253919708 Z" id="Combined-Shape" fill="#F9A000"></path>
                </g>
            </g>
        </g>
    </g>
</svg>