<?xml version="1.0" encoding="UTF-8"?>
<svg width="140px" height="35px" viewBox="0 0 140 35" version="1.1" xmlns="http://www.w3.org/2000/svg" xmlns:xlink="http://www.w3.org/1999/xlink">
    <title>paypal</title>
    <g id="Page-1" stroke="none" stroke-width="1" fill="none" fill-rule="evenodd">
        <g id="CREDIT-CARDS" transform="translate(-93.000000, -70.000000)" fill-rule="nonzero">
            <g id="paypal" transform="translate(93.000000, 70.000000)">
                <path d="M52.1737097,7.61983849 L44.4522581,7.61983849 C43.9241421,7.61950561 43.4743716,8.00365461 43.3920968,8.52532258 L40.2691935,28.3251613 C40.2401384,28.5111016 40.2939309,28.7004429 40.4164077,28.8433326 C40.5388845,28.9862222 40.7177712,29.0683399 40.9059677,29.0680652 L44.5922581,29.0680652 C45.1207398,29.0683104 45.5706438,28.6835682 45.6524194,28.1614516 L46.4946774,22.821129 C46.5763868,22.2994349 47.0256556,21.9148263 47.5537097,21.9145161 L49.9980645,21.9145161 C55.0843548,21.9145161 58.0198387,19.4532258 58.7864516,14.5758065 C59.1319355,12.4419355 58.801129,10.7653226 57.8019355,9.59112903 C56.7045161,8.30177419 54.7580645,7.61983849 52.1737097,7.61983849 L52.1737097,7.61983849 Z M53.0645161,14.8512903 C52.6422581,17.6219355 50.5253226,17.6219355 48.4783871,17.6219355 L47.3132258,17.6219355 L48.1306452,12.4475806 C48.1800832,12.1348386 48.4496648,11.9045161 48.7662903,11.9045161 L49.3003226,11.9045161 C50.6946774,11.9045161 52.01,11.9045161 52.6896774,12.6993548 C53.095,13.1735484 53.2191935,13.8780645 53.0645161,14.8512903 L53.0645161,14.8512903 Z M75.2545161,14.7620968 L71.5569355,14.7620968 C71.24031,14.7621017 70.9707283,14.9924193 70.9212903,15.3051613 L70.7575806,16.3393548 L70.4990323,15.9645161 C69.6985484,14.8027419 67.9135484,14.4143548 66.1319355,14.4143548 C62.0459677,14.4143548 58.556129,17.5090323 57.8764516,21.8501613 C57.5230645,24.0156452 58.0254839,26.0862903 59.253871,27.5303226 C60.3806452,28.8580645 61.9929032,29.4112903 63.911129,29.4112903 C67.2033871,29.4112903 69.0290323,27.2943548 69.0290323,27.2943548 L68.8641935,28.3217742 C68.8344674,28.5076766 68.8876359,28.6972732 69.0096908,28.8406117 C69.1317458,28.9839503 69.3104459,29.0666548 69.4987097,29.0669355 L72.8293548,29.0669355 C73.3578366,29.0671814 73.8077406,28.6824392 73.8895161,28.1603226 L75.8879032,15.505 C75.9176711,15.3195053 75.8646027,15.1302865 75.742716,14.9873249 C75.6208293,14.8443633 75.4423842,14.7620387 75.2545161,14.7620968 L75.2545161,14.7620968 Z M70.1004839,21.9585484 C69.7437097,24.0709677 68.0670968,25.4890323 65.9287097,25.4890323 C64.855,25.4890323 63.9969355,25.1446774 63.4459677,24.4920968 C62.8995161,23.8440323 62.6917742,22.9216129 62.8656452,21.8941935 C63.1987097,19.7998387 64.9035484,18.3354839 67.0091935,18.3354839 C68.0591935,18.3354839 68.9127419,18.6843548 69.475,19.3425806 C70.0383871,20.0075806 70.2619355,20.9356452 70.1004839,21.9585484 L70.1004839,21.9585484 Z M94.9470968,14.7620945 L91.2314516,14.7620945 C90.8756917,14.7626599 90.5431578,14.9388564 90.3429032,15.2329032 L85.2182258,22.7816129 L83.0459677,15.5275806 C82.9090567,15.0733043 82.4907496,14.762326 82.0162903,14.7620945 L78.365,14.7620945 C78.1570458,14.7615438 77.961641,14.8615115 77.8404096,15.0304737 C77.7191781,15.1994358 77.6870635,15.4165653 77.7541935,15.6133871 L81.8469355,27.6240323 L77.9991935,33.0558065 C77.8597894,33.2521373 77.8416483,33.5098657 77.9521752,33.7237888 C78.0627022,33.9377119 78.2834047,34.0719365 78.5241935,34.0719365 L82.2353226,34.0719365 C82.5870377,34.0724199 82.9165933,33.9002577 83.1170968,33.6112903 L95.4754839,15.7725806 C95.61201,15.5758704 95.6280354,15.3196265 95.5170815,15.107439 C95.4061276,14.8952515 95.1865426,14.7620945 94.9470968,14.7620945 L94.9470968,14.7620945 Z" id="Shape" fill="#253B80"></path>
                <path d="M107.249032,7.61983871 L99.5264516,7.61983871 C98.9987632,7.62006133 98.5496276,8.00407706 98.4674194,8.52532258 L95.3445161,28.3251613 C95.3151206,28.5107815 95.3684793,28.6999655 95.4905342,28.8428696 C95.6125891,28.9857737 95.7910988,29.0680645 95.9790323,29.0680645 L99.9419355,29.0680645 C100.31128,29.067523 100.625374,28.7984362 100.682581,28.4335484 L101.568871,22.821129 C101.65058,22.2994349 102.099849,21.9148263 102.627903,21.9145161 L105.071129,21.9145161 C110.158548,21.9145161 113.092903,19.4532258 113.860645,14.5758065 C114.207258,12.4419355 113.874194,10.7653226 112.875,9.59112903 C111.77871,8.30177419 109.833387,7.61983871 107.249032,7.61983871 L107.249032,7.61983871 Z M108.139839,14.8512903 C107.71871,17.6219355 105.601774,17.6219355 103.55371,17.6219355 L102.389677,17.6219355 L103.208226,12.4475806 C103.256711,12.1347662 103.526193,11.9041247 103.842742,11.9045156 L104.376774,11.9045156 C105.77,11.9045156 107.086452,11.9045156 107.766129,12.6993548 C108.171452,13.1735484 108.294516,13.8780645 108.139839,14.8512903 L108.139839,14.8512903 Z M130.32871,14.7620968 L126.633387,14.7620968 C126.316661,14.7612255 126.04691,14.9920982 125.998871,15.3051613 L125.835161,16.3393548 L125.575484,15.9645161 C124.775,14.8027419 122.991129,14.4143548 121.209516,14.4143548 C117.123548,14.4143548 113.634839,17.5090323 112.955161,21.8501613 C112.602903,24.0156452 113.103065,26.0862903 114.331452,27.5303226 C115.460484,28.8580645 117.070484,29.4112903 118.98871,29.4112903 C122.280968,29.4112903 124.106613,27.2943548 124.106613,27.2943548 L123.941774,28.3217742 C123.911986,28.5080662 123.965441,28.6980469 124.088004,28.8414711 C124.210566,28.9848953 124.38989,29.0673162 124.578548,29.0669355 L127.908065,29.0669355 C128.436119,29.0666253 128.885387,28.6820167 128.967097,28.1603226 L130.966613,15.505 C130.995298,15.3189349 130.941216,15.1296277 130.818571,14.9867949 C130.695925,14.8439621 130.516973,14.7618769 130.32871,14.7620968 L130.32871,14.7620968 Z M125.174677,21.9585484 C124.820161,24.0709677 123.14129,25.4890323 121.002903,25.4890323 C119.931452,25.4890323 119.071129,25.1446774 118.520161,24.4920968 C117.97371,23.8440323 117.768226,22.9216129 117.939839,21.8941935 C118.275161,19.7998387 119.977742,18.3354839 122.083387,18.3354839 C123.133387,18.3354839 123.986935,18.6843548 124.549194,19.3425806 C125.114839,20.0075806 125.338387,20.9356452 125.174677,21.9585484 L125.174677,21.9585484 Z M134.687903,8.16290323 L131.51871,28.3251613 C131.489314,28.5107815 131.542673,28.6999655 131.664728,28.8428696 C131.786783,28.9857737 131.965292,29.0680645 132.153226,29.0680645 L135.339355,29.0680645 C135.868871,29.0680645 136.318226,28.6841935 136.399516,28.1614516 L139.524677,8.36274194 C139.554037,8.17701521 139.500701,7.98773783 139.378688,7.84466647 C139.256676,7.70159511 139.078194,7.61904244 138.890161,7.61870968 L135.322419,7.61870968 C135.006032,7.61982997 134.737216,7.85038017 134.687903,8.16290323 L134.687903,8.16290323 Z" id="Shape" fill="#179BD7"></path>
                <path d="M8.20354839,32.9158065 L8.79403226,29.1651613 L7.47870968,29.1346774 L1.19790323,29.1346774 L5.56274194,1.45870968 C5.58959979,1.28393087 5.74043016,1.15519666 5.91725806,1.156124 L16.5075806,1.156124 C20.0233871,1.156124 22.4496774,1.88774194 23.7164516,3.33177419 C24.3103226,4.00919355 24.6885484,4.71709677 24.8714516,5.49612903 C25.0633871,6.31354839 25.0667742,7.29016129 24.8793548,8.48129032 L24.8658065,8.56822581 L24.8658065,9.33145161 L25.4596774,9.66790323 C25.9130483,9.89759361 26.3205652,10.2083013 26.6620968,10.5846774 C27.1701613,11.163871 27.4987097,11.9 27.6375806,12.7727419 C27.7809677,13.6703226 27.7335484,14.7383871 27.4987097,15.9475806 C27.2277419,17.3385484 26.7896774,18.55 26.1980645,19.5412903 C25.6760766,20.4293266 24.9742431,21.1984592 24.1375806,21.7993548 C23.3517742,22.3570968 22.4180645,22.7804839 21.3624194,23.0514516 C20.3395161,23.3179032 19.1732258,23.4522581 17.8940323,23.4522581 L17.0698387,23.4522581 C16.4804839,23.4522581 15.9080645,23.6645161 15.4587097,24.045 C15.0099919,24.4295437 14.7123228,24.960867 14.6187097,25.5443548 L14.5566129,25.8819355 L13.5133871,32.4924194 L13.4659677,32.7351613 C13.4535484,32.8119355 13.4320968,32.8503226 13.4004839,32.8762903 C13.3698599,32.9013348 13.3316538,32.9152641 13.2920968,32.9158065 L8.20354839,32.9158065 Z" id="Path" fill="#253B80"></path>
                <path d="M26.0219355,8.65629032 C25.9903226,8.8583871 25.9541935,9.065 25.9135484,9.27725806 C24.5169355,16.4477419 19.738871,18.9248387 13.6364516,18.9248387 L10.5293548,18.9248387 C9.78306452,18.9248387 9.15419355,19.4667742 9.03790323,20.2029032 L7.44709677,30.2919355 L6.9966129,33.1517742 C6.96029591,33.3813479 7.02628521,33.6153153 7.17720764,33.7920791 C7.32813007,33.9688429 7.54886181,34.0708065 7.78129032,34.0708065 L13.2920968,34.0708065 C13.9446774,34.0708065 14.4990323,33.5966129 14.6017742,32.9530645 L14.6559677,32.6730645 L15.6935484,26.0885484 L15.7601613,25.7272581 C15.8617742,25.0814516 16.4172581,24.6072581 17.0698387,24.6072581 L17.8940323,24.6072581 C23.2332258,24.6072581 27.4129032,22.4395161 28.6345161,16.1666129 C29.1448387,13.546129 28.8806452,11.3580645 27.5303226,9.81919355 C27.1023406,9.34315184 26.5911963,8.94908105 26.0219355,8.65629032 L26.0219355,8.65629032 Z" id="Path" fill="#179BD7"></path>
                <path d="M24.5609677,8.07370968 C24.1150298,7.9447078 23.6613833,7.84402317 23.2027419,7.77225806 C22.2964903,7.63298275 21.3805796,7.56615827 20.4637097,7.57241935 L12.1630645,7.57241935 C11.5103459,7.57201702 10.9547628,8.04744462 10.8545161,8.69241935 L9.08870968,19.8766129 L9.03790323,20.2029032 C9.15157097,19.4672197 9.78494204,18.9244672 10.5293548,18.9248387 L13.6364516,18.9248387 C19.738871,18.9248387 24.5169355,16.4466129 25.9135484,9.27725806 C25.9553226,9.065 25.9903226,8.8583871 26.0219355,8.65629032 C25.6534027,8.46303227 25.2693155,8.30101318 24.8737097,8.17193548 C24.7699946,8.1375224 24.6657339,8.10477625 24.5609677,8.07370968 L24.5609677,8.07370968 Z" id="Path" fill="#222D65"></path>
                <path d="M10.8545161,8.69241935 C10.9539257,8.04714749 11.5101833,7.57152084 12.1630645,7.57354839 L20.4637097,7.57354839 C21.4470968,7.57354839 22.365,7.63790323 23.2027419,7.7733871 C23.7696375,7.86248156 24.3287047,7.9957366 24.8748387,8.17193548 C25.2869355,8.30854839 25.6696774,8.47 26.0230645,8.65629032 C26.4385484,6.00645161 26.0196774,4.20225806 24.5869355,2.56854839 C23.0074194,0.77 20.1566129,0 16.5087097,0 L5.9183871,0 C5.17322581,0 4.53758065,0.541935484 4.42241935,1.27919355 L0.0112903226,29.2396774 C-0.0302901679,29.5023888 0.045149428,29.7701415 0.217764665,29.972503 C0.390379902,30.1748645 0.642889631,30.2915757 0.908870968,30.2919355 L7.44709677,30.2919355 L9.08870968,19.8766129 L10.8545161,8.69241935 Z" id="Path" fill="#253B80"></path>
            </g>
        </g>
    </g>
</svg>