<?xml version="1.0" encoding="UTF-8"?>
<svg width="70px" height="50px" viewBox="0 0 70 50" version="1.1" xmlns="http://www.w3.org/2000/svg" xmlns:xlink="http://www.w3.org/1999/xlink">
    <title>visa</title>
    <g id="Page-1" stroke="none" stroke-width="1" fill="none" fill-rule="evenodd">
        <g id="visa">
            <rect id="visa-bg" fill="#224DBA" x="0" y="0" width="70" height="50" rx="6.63157895"></rect>
            <path d="M22.7504958,32.8831774 L18.6829402,32.8831774 L15.6327693,21.246604 C15.4879953,20.7113216 15.1805983,20.2381009 14.7284274,20.0150666 C13.5999831,19.4545717 12.3565129,19.008503 11,18.7835293 L11,18.3355212 L17.5525128,18.3355212 C18.4568547,18.3355212 19.1351112,19.008503 19.2481539,19.7900929 L20.8307524,28.1839411 L24.8963247,18.3355212 L28.8508376,18.3355212 L22.7504958,32.8831774 Z M31.1116925,32.8831774 L27.2702224,32.8831774 L30.433436,18.3355212 L34.2749061,18.3355212 L31.1116925,32.8831774 Z M39.2448205,22.3656544 C39.3578632,21.5821252 40.0361197,21.1341171 40.8274189,21.1341171 C42.0708891,21.0216302 43.4254188,21.246604 44.5558462,21.8051595 L45.2341027,18.6729818 C44.1036753,18.2249738 42.8602051,18 41.7317608,18 C38.0033335,18 35.2903076,20.0150666 35.2903076,22.8117231 C35.2903076,24.9392766 37.2120343,26.0563876 38.5685472,26.7293695 C40.0361197,27.4004119 40.6013334,27.8484199 40.4882906,28.5194623 C40.4882906,29.5260259 39.3578632,29.974034 38.229419,29.974034 C36.872906,29.974034 35.5163931,29.6385128 34.2749061,29.0780179 L33.5966496,32.212135 C34.9531626,32.7706905 36.4207351,32.9956642 37.777248,32.9956642 C41.9578463,33.1062117 44.5558462,31.0930845 44.5558462,28.0714543 C44.5558462,24.2662948 39.2448205,24.0432604 39.2448205,22.3656544 L39.2448205,22.3656544 Z M58,32.8831774 L54.9498291,18.3355212 L51.6735727,18.3355212 C50.9953163,18.3355212 50.3170598,18.7835293 50.0909743,19.4545717 L44.4428035,32.8831774 L48.3973163,32.8831774 L49.1866323,30.7575633 L54.0454872,30.7575633 L54.4976581,32.8831774 L58,32.8831774 Z M52.2387864,22.2531676 L53.3672307,27.7359331 L50.204017,27.7359331 L52.2387864,22.2531676 Z" id="visa-logo" fill="#FFFFFF"></path>
        </g>
    </g>
</svg>