<?xml version="1.0" encoding="UTF-8"?>
<svg width="48px" height="48px" viewBox="0 0 48 48" version="1.1" xmlns="http://www.w3.org/2000/svg" xmlns:xlink="http://www.w3.org/1999/xlink">
    <title>Cord</title>
    <g id="Cord" stroke="none" stroke-width="1" fill="none" fill-rule="evenodd">
        <g id="Group" transform="translate(16.000000, 0.000000)" fill="#8792A1" fill-rule="nonzero">
            <path d="M4,5 C2.8954305,5 2,5.90736957 2,7.02666667 L2,40.9733333 C2,42.0926304 2.8954305,43 4,43 L12,43 C13.1045695,43 14,42.0926304 14,40.9733333 L14,7.02666667 C14,5.90736957 13.1045695,5 12,5 L4,5 Z M4,3 L12,3 C14.209139,3 16,4.81243764 16,7.04819277 L16,40.9518072 C16,43.1875624 14.209139,45 12,45 L4,45 C1.790861,45 0,43.1875624 0,40.9518072 L0,7.04819277 C0,4.81243764 1.790861,3 4,3 Z" id="Rectangle"></path>
            <polygon id="Line-4" points="7 1.11022302e-15 9 1.11022302e-15 9 3 7 3"></polygon>
            <polygon id="Line-4" points="7 45 9 45 9 48 7 48"></polygon>
            <path d="M8,28 C5.790861,28 4,26.209139 4,24 C4,21.790861 5.790861,20 8,20 C10.209139,20 12,21.790861 12,24 C12,26.209139 10.209139,28 8,28 Z M8,26 C9.1045695,26 10,25.1045695 10,24 C10,22.8954305 9.1045695,22 8,22 C6.8954305,22 6,22.8954305 6,24 C6,25.1045695 6.8954305,26 8,26 Z" id="Oval-2"></path>
        </g>
    </g>
</svg>