<?xml version="1.0" encoding="UTF-8"?>
<svg width="48px" height="48px" viewBox="0 0 48 48" version="1.1" xmlns="http://www.w3.org/2000/svg" xmlns:xlink="http://www.w3.org/1999/xlink">
    <title>Handheld</title>
    <g id="Handheld" stroke="none" stroke-width="1" fill="none" fill-rule="evenodd">
        <g id="Group" transform="translate(12.999718, 3.000000)" fill="#8792A1">
            <path d="M6.00028186,13 L6.00028186,35 L18.0002819,35 L18.0002819,13 L6.00028186,13 Z M5.00028186,11 L19.0002819,11 C19.5525666,11 20.0002819,11.4477153 20.0002819,12 L20.0002819,36 C20.0002819,36.5522847 19.5525666,37 19.0002819,37 L5.00028186,37 C4.44799711,37 4.00028186,36.5522847 4.00028186,36 L4.00028186,12 C4.00028186,11.4477153 4.44799711,11 5.00028186,11 Z" id="Rectangle" fill-rule="nonzero"></path>
            <path d="M20.0002819,40 C21.1048514,40 22.0002819,39.1045695 22.0002819,38 L22.0002819,4 C22.0002819,2.8954305 21.1048514,2 20.0002819,2 L4.00028186,2 C2.87198279,2.01329041 1.98713315,2.9193166 2.00028186,4.02380784 L2.00028186,38.2264579 C2.01198301,39.2093548 2.76731529,40 3.75028186,40 L20.0002819,40 Z M20.0002819,0 C22.2094209,0 24.0002819,1.790861 24.0002819,4 L24.0002819,38 C24.0002819,40.209139 22.2094209,42 20.0002819,42 L3.75028186,42 C1.67203213,42 0.0250211752,40.3283682 0.000281859986,38.2502657 L0.000281859985,4.04761567 C-0.0260155504,1.8386332 1.79129939,0.026580827 4.00028186,0 C4.01086265,0 9.34419599,0 20.0002819,0 Z" id="Rectangle" fill-rule="nonzero"></path>
            <path d="M12.0002819,7 C12.5525666,7 13.0002819,7.44771525 13.0002819,8 C13.0002819,8.55228475 12.5525666,9 12.0002819,9 C11.4479971,9 11.0002819,8.55228475 11.0002819,8 C11.0002819,7.44771525 11.4479971,7 12.0002819,7 Z" id="Rectangle-2"></path>
        </g>
    </g>
</svg>