<?xml version="1.0" encoding="UTF-8"?>
<svg width="48px" height="48px" viewBox="0 0 48 48" version="1.1" xmlns="http://www.w3.org/2000/svg" xmlns:xlink="http://www.w3.org/1999/xlink">
    <title>Handheld</title>
    <g id="Handheld" stroke="none" stroke-width="1" fill="none" fill-rule="evenodd">
        <g id="Group" transform="translate(12.999718, 3.000000)" fill="#8792A1">
            <path d="M6.00028186,10 L6.00028186,32 L18.0002819,32 L18.0002819,10 L6.00028186,10 Z M5.00028186,8 L19.0002819,8 C19.5525666,8 20.0002819,8.44771525 20.0002819,9 L20.0002819,33 C20.0002819,33.5522847 19.5525666,34 19.0002819,34 L5.00028186,34 C4.44799711,34 4.00028186,33.5522847 4.00028186,33 L4.00028186,9 C4.00028186,8.44771525 4.44799711,8 5.00028186,8 Z" id="Rectangle" fill-rule="nonzero"></path>
            <path d="M4.93421224,40 L5.37086107,38.2323614 C5.70174352,36.8928854 6.90357792,35.9518072 8.28331667,35.9518072 L10.217247,35.9518072 C11.5969858,35.9518072 12.7988202,36.8928854 13.1297026,38.2323614 L13.5663515,40 L20.0002819,40 C21.1048514,40 22.0002819,39.1045695 22.0002819,38 L22.0002819,4 C22.0002819,2.8954305 21.1048514,2 20.0002819,2 L4.00028186,2 C2.87198279,2.01329041 1.98713315,2.9193166 2.00013721,4.02380784 L2.00013721,38.2264579 C2.01198301,39.2093548 2.76731529,40 3.75028186,40 L4.93421224,40 Z M20.0002819,0 C22.2094209,0 24.0002819,1.790861 24.0002819,4 L24.0002819,38 C24.0002819,40.209139 22.2094209,42 20.0002819,42 L12.7833167,42 C12.3234038,42 11.9227923,41.6863073 11.8124981,41.2398153 L11.1880656,38.7119919 C11.0777714,38.2655 10.67716,37.9518072 10.217247,37.9518072 L8.28331667,37.9518072 C7.82340375,37.9518072 7.42279229,38.2655 7.31249814,38.7119919 L6.68806558,41.2398153 C6.57777143,41.6863073 6.17715997,42 5.71724705,42 L3.75028186,42 C1.67203213,42 0.0250211752,40.3283682 0.000281859986,38.2502657 L0.000281859986,4.04761567 C-0.0260155504,1.8386332 1.79129939,0.026580827 4.00028186,0 C4.01086265,0 9.34419599,0 20.0002819,0 Z" id="Rectangle" fill-rule="nonzero"></path>
            <path d="M16.0002819,4 L19.0002819,4 C19.5525666,4 20.0002819,4.44771525 20.0002819,5 C20.0002819,5.55228475 19.5525666,6 19.0002819,6 L16.0002819,6 C15.4479971,6 15.0002819,5.55228475 15.0002819,5 C15.0002819,4.44771525 15.4479971,4 16.0002819,4 Z" id="Rectangle-2"></path>
            <path d="M12.0002819,4 L13.0002819,4 C13.5525666,4 14.0002819,4.44771525 14.0002819,5 C14.0002819,5.55228475 13.5525666,6 13.0002819,6 L12.0002819,6 C11.4479971,6 11.0002819,5.55228475 11.0002819,5 C11.0002819,4.44771525 11.4479971,4 12.0002819,4 Z" id="Rectangle-2"></path>
        </g>
    </g>
</svg>