<svg width="16" height="16" viewBox="0 0 16 16" fill="none" xmlns="http://www.w3.org/2000/svg">
<path d="M12.6666 9.33329V3.99996C12.6666 3.26663 12.0666 2.66663 11.3333 2.66663H1.99996C1.26663 2.66663 0.666626 3.26663 0.666626 3.99996V9.33329C0.666626 10.0666 1.26663 10.6666 1.99996 10.6666H11.3333C12.0666 10.6666 12.6666 10.0666 12.6666 9.33329ZM6.66663 8.66663C5.55996 8.66663 4.66663 7.77329 4.66663 6.66663C4.66663 5.55996 5.55996 4.66663 6.66663 4.66663C7.77329 4.66663 8.66663 5.55996 8.66663 6.66663C8.66663 7.77329 7.77329 8.66663 6.66663 8.66663ZM15.3333 4.66663V12C15.3333 12.7333 14.7333 13.3333 14 13.3333H2.66663V12H14V4.66663H15.3333Z" fill="#31325C"/>
</svg>
