<?xml version="1.0" encoding="UTF-8"?>
<svg width="48px" height="48px" viewBox="0 0 48 48" version="1.1" xmlns="http://www.w3.org/2000/svg" xmlns:xlink="http://www.w3.org/1999/xlink">
    <title>Handheld</title>
    <g id="Handheld" stroke="none" stroke-width="1" fill="none" fill-rule="evenodd">
        <g id="Group" transform="translate(24.999718, 24.000000) rotate(-180.000000) translate(-24.999718, -24.000000) translate(13.999718, 4.000000)">
            <path d="M5.00028186,6 L5.00028186,26 L17.0002819,26 L17.0002819,6 L5.00028186,6 Z M4.00028186,4 L18.0002819,4 C18.5525666,4 19.0002819,4.42980664 19.0002819,4.96 L19.0002819,27.04 C19.0002819,27.5701934 18.5525666,28 18.0002819,28 L4.00028186,28 C3.44799711,28 3.00028186,27.5701934 3.00028186,27.04 L3.00028186,4.96 C3.00028186,4.42980664 3.44799711,4 4.00028186,4 Z M18.0470866,33 L3.98014666,33" id="Rectangle" fill="#8792A1" fill-rule="nonzero"></path>
            <path d="M19.9997181,40 L21.9997181,33 L21.9997181,3 C21.9997181,1.34314575 20.6565724,-1.70834616e-13 18.9997181,-1.70530257e-13 L2.99971814,-1.70530257e-13 C1.34286389,-1.70225897e-13 -0.000281859985,1.34314575 -0.000281859985,3 L-0.000281859985,33 L-0.000281859985,33 L1.99971814,40 L19.9997181,40 Z" id="Path-2" stroke="#8792A1" stroke-width="2"></path>
        </g>
        <g id="Group" transform="translate(24.999718, 10.000000) rotate(-180.000000) translate(-24.999718, -10.000000) translate(17.999718, 8.000000)" stroke="#8792A1" stroke-width="2">
            <path d="M13.0186547,3.92425356 L13.9686547,0.124253563 C13.9820496,0.0706740717 13.9494736,0.0163806227 13.8958941,0.00298574999 C13.887962,0.00100273489 13.8798167,-1.70642781e-13 13.8716405,-1.70530257e-13 L0.127795781,-1.70530257e-13 C0.0725673057,-1.70478478e-13 0.0277957807,0.044771525 0.0277957807,0.1 C0.0277957807,0.108176181 0.0287985155,0.116321502 0.0307815306,0.124253563 L0.980781531,3.92425356 C0.991910706,3.96877026 1.03190902,4 1.07779578,4 L12.9216405,4 C12.9675273,4 13.0075256,3.96877026 13.0186547,3.92425356 Z" id="Path-2"></path>
        </g>
        <path d="M22,12 L28,12 C28.5522847,12 29,12.4477153 29,13 C29,13.5522847 28.5522847,14 28,14 L22,14 C21.4477153,14 21,13.5522847 21,13 C21,12.4477153 21.4477153,12 22,12 Z" id="Rectangle-2" fill="#8792A1"></path>
    </g>
</svg>